<?xml version="1.0" encoding="utf-8"?>
<!-- Generator: Adobe Illustrator 22.1.0, SVG Export Plug-In . SVG Version: 6.00 Build 0)  -->
<svg version="1.1" id="Layer_1" xmlns="http://www.w3.org/2000/svg" xmlns:xlink="http://www.w3.org/1999/xlink" x="0px" y="0px"
	 viewBox="0 0 215.7 56.8" style="enable-background:new 0 0 215.7 56.8;" xml:space="preserve">
<style type="text/css">
	.st0{fill:#FFFFFF;}
</style>
<g>
	<g>
		<path class="st0" d="M11.3,49.2c0,1-0.4,1.9-1.1,2.5c-0.7,0.6-1.8,0.9-3.1,0.9c-1.2,0-2.3-0.2-3.3-0.7v-2.3c0.8,0.3,1.4,0.6,2,0.7
			c0.5,0.1,1,0.2,1.5,0.2c0.5,0,0.9-0.1,1.2-0.3c0.3-0.2,0.4-0.5,0.4-0.9c0-0.2-0.1-0.4-0.2-0.6c-0.1-0.2-0.3-0.3-0.6-0.5
			c-0.2-0.2-0.7-0.4-1.5-0.8c-0.7-0.3-1.2-0.6-1.6-1c-0.4-0.3-0.6-0.7-0.8-1.1C4,45,3.9,44.6,3.9,44c0-1,0.3-1.8,1-2.4
			c0.7-0.6,1.6-0.9,2.9-0.9c0.6,0,1.2,0.1,1.7,0.2c0.5,0.1,1.1,0.3,1.7,0.6l-0.8,1.9c-0.6-0.3-1.1-0.4-1.5-0.5
			c-0.4-0.1-0.8-0.1-1.2-0.1c-0.5,0-0.8,0.1-1.1,0.3c-0.2,0.2-0.4,0.5-0.4,0.8c0,0.2,0,0.4,0.1,0.6c0.1,0.2,0.3,0.3,0.5,0.5
			c0.2,0.1,0.7,0.4,1.5,0.8c1.1,0.5,1.8,1,2.2,1.5C11.1,47.8,11.3,48.5,11.3,49.2z"/>
		<path class="st0" d="M34.7,40.9v7.4c0,0.9-0.2,1.6-0.6,2.2c-0.4,0.6-0.9,1.1-1.6,1.5c-0.7,0.3-1.6,0.5-2.6,0.5
			c-1.5,0-2.6-0.4-3.4-1.1c-0.8-0.8-1.2-1.8-1.2-3.1v-7.4h2.4v7c0,0.9,0.2,1.5,0.5,2c0.4,0.4,0.9,0.6,1.8,0.6c0.8,0,1.4-0.2,1.7-0.6
			c0.4-0.4,0.5-1.1,0.5-2v-7H34.7z"/>
		<path class="st0" d="M49.4,40.9H53c1.6,0,2.8,0.2,3.6,0.7c0.7,0.5,1.1,1.2,1.1,2.2c0,0.7-0.2,1.3-0.5,1.7
			c-0.3,0.4-0.8,0.7-1.3,0.8v0.1c0.7,0.2,1.3,0.5,1.6,0.9c0.3,0.4,0.5,1,0.5,1.8c0,1-0.4,1.9-1.1,2.5c-0.8,0.6-1.8,0.9-3.1,0.9h-4.3
			V40.9z M51.8,45.5h1.4c0.7,0,1.1-0.1,1.4-0.3c0.3-0.2,0.4-0.5,0.4-1c0-0.4-0.2-0.8-0.5-0.9c-0.3-0.2-0.8-0.3-1.5-0.3h-1.3V45.5z
			 M51.8,47.4v3h1.6c0.7,0,1.2-0.1,1.5-0.4c0.3-0.3,0.5-0.7,0.5-1.2c0-1-0.7-1.4-2-1.4H51.8z"/>
		<path class="st0" d="M79,49.2c0,1-0.4,1.9-1.1,2.5c-0.7,0.6-1.8,0.9-3.1,0.9c-1.2,0-2.3-0.2-3.3-0.7v-2.3c0.8,0.3,1.4,0.6,2,0.7
			c0.5,0.1,1,0.2,1.5,0.2c0.5,0,0.9-0.1,1.2-0.3c0.3-0.2,0.4-0.5,0.4-0.9c0-0.2-0.1-0.4-0.2-0.6c-0.1-0.2-0.3-0.3-0.6-0.5
			c-0.2-0.2-0.7-0.4-1.5-0.8c-0.7-0.3-1.2-0.6-1.6-1c-0.4-0.3-0.6-0.7-0.8-1.1c-0.2-0.4-0.3-0.9-0.3-1.4c0-1,0.3-1.8,1-2.4
			c0.7-0.6,1.6-0.9,2.9-0.9c0.6,0,1.2,0.1,1.7,0.2c0.5,0.1,1.1,0.3,1.7,0.6l-0.8,1.9c-0.6-0.3-1.1-0.4-1.5-0.5
			c-0.4-0.1-0.8-0.1-1.2-0.1c-0.5,0-0.8,0.1-1.1,0.3c-0.2,0.2-0.4,0.5-0.4,0.8c0,0.2,0,0.4,0.1,0.6c0.1,0.2,0.3,0.3,0.5,0.5
			c0.2,0.1,0.7,0.4,1.5,0.8c1.1,0.5,1.8,1,2.2,1.5C78.8,47.8,79,48.5,79,49.2z"/>
		<path class="st0" d="M96.6,45.6l2.4-4.7h2.6l-3.8,7v4.5h-2.4V48l-3.8-7.1h2.6L96.6,45.6z"/>
		<path class="st0" d="M121.8,49.2c0,1-0.4,1.9-1.1,2.5c-0.7,0.6-1.8,0.9-3.1,0.9c-1.2,0-2.3-0.2-3.3-0.7v-2.3
			c0.8,0.3,1.4,0.6,2,0.7c0.5,0.1,1,0.2,1.5,0.2c0.5,0,0.9-0.1,1.2-0.3c0.3-0.2,0.4-0.5,0.4-0.9c0-0.2-0.1-0.4-0.2-0.6
			c-0.1-0.2-0.3-0.3-0.6-0.5c-0.2-0.2-0.7-0.4-1.5-0.8c-0.7-0.3-1.2-0.6-1.6-1c-0.4-0.3-0.6-0.7-0.8-1.1c-0.2-0.4-0.3-0.9-0.3-1.4
			c0-1,0.3-1.8,1-2.4c0.7-0.6,1.6-0.9,2.9-0.9c0.6,0,1.2,0.1,1.7,0.2c0.5,0.1,1.1,0.3,1.7,0.6l-0.8,1.9c-0.6-0.3-1.1-0.4-1.5-0.5
			c-0.4-0.1-0.8-0.1-1.2-0.1c-0.5,0-0.8,0.1-1.1,0.3c-0.2,0.2-0.4,0.5-0.4,0.8c0,0.2,0,0.4,0.1,0.6c0.1,0.2,0.3,0.3,0.5,0.5
			c0.2,0.1,0.7,0.4,1.5,0.8c1.1,0.5,1.8,1,2.2,1.5C121.6,47.8,121.8,48.5,121.8,49.2z"/>
		<path class="st0" d="M140.2,52.4h-2.4v-9.5h-3.1v-2h8.7v2h-3.1V52.4z"/>
		<path class="st0" d="M163.7,52.4h-6.6V40.9h6.6v2h-4.2v2.5h3.9v2h-3.9v3h4.2V52.4z"/>
		<path class="st0" d="M182.9,52.4l-2.8-9h-0.1c0.1,1.8,0.1,3.1,0.1,3.7v5.4H178V40.9h3.3l2.7,8.8h0l2.9-8.8h3.3v11.5h-2.3V47
			c0-0.3,0-0.6,0-0.9c0-0.3,0-1.2,0.1-2.7h-0.1l-3,9H182.9z"/>
		<path class="st0" d="M212,49.2c0,1-0.4,1.9-1.1,2.5c-0.7,0.6-1.8,0.9-3.1,0.9c-1.2,0-2.3-0.2-3.3-0.7v-2.3c0.8,0.3,1.4,0.6,2,0.7
			c0.5,0.1,1,0.2,1.5,0.2c0.5,0,0.9-0.1,1.2-0.3c0.3-0.2,0.4-0.5,0.4-0.9c0-0.2-0.1-0.4-0.2-0.6c-0.1-0.2-0.3-0.3-0.6-0.5
			c-0.2-0.2-0.7-0.4-1.5-0.8c-0.7-0.3-1.2-0.6-1.6-1c-0.4-0.3-0.6-0.7-0.8-1.1c-0.2-0.4-0.3-0.9-0.3-1.4c0-1,0.3-1.8,1-2.4
			c0.7-0.6,1.6-0.9,2.9-0.9c0.6,0,1.2,0.1,1.7,0.2c0.5,0.1,1.1,0.3,1.7,0.6l-0.8,1.9c-0.6-0.3-1.1-0.4-1.5-0.5
			c-0.4-0.1-0.8-0.1-1.2-0.1c-0.5,0-0.8,0.1-1.1,0.3c-0.2,0.2-0.4,0.5-0.4,0.8c0,0.2,0,0.4,0.1,0.6c0.1,0.2,0.3,0.3,0.5,0.5
			c0.2,0.1,0.7,0.4,1.5,0.8c1.1,0.5,1.8,1,2.2,1.5C211.8,47.8,212,48.5,212,49.2z"/>
	</g>
</g>
<path class="st0" d="M36.7,4.2H4.1v7h21.3v0h9c3.5,0,5.7,0.5,6.5,1.5c0.8,1,1.2,2.9,1.2,5.7v0.3c0,2.8-0.5,4.7-1.4,5.7
	c-0.9,1-3.1,1.5-6.6,1.5h-19V15.1H4.1v17.8h36.7c3.3,0,6-0.6,8.2-1.9c2.2-1.3,3.5-2.7,3.8-4.4c0.4-1.7,0.6-2.8,0.6-3.3
	c0.1-0.5,0.1-1.5,0.1-2.8v-3.3c0-5.2-1.1-8.6-3.4-10.3C47.8,5.1,43.4,4.2,36.7,4.2z M157.5,4.2h-44.2v7.2h16.5v21.5H141V11.4h16.5
	V4.2z M191.8,4.2h-15.2L156,32.9h12.4l3.6-5.2h24.1l3.5,5.2H212L191.8,4.2z M176,21.8l8.1-12.1l8,12.1H176z M79.3,4.2L58.7,32.9
	h12.4l3.6-5.2h24.1l3.5,5.2h12.4L94.5,4.2H79.3z M78.7,21.8l8.1-12.1l8,12.1H78.7z"/>
</svg>
