<?xml version="1.0" encoding="utf-8"?>
<!-- Generator: Adobe Illustrator 22.1.0, SVG Export Plug-In . SVG Version: 6.00 Build 0)  -->
<svg version="1.1" id="Layer_1" xmlns="http://www.w3.org/2000/svg" xmlns:xlink="http://www.w3.org/1999/xlink" x="0px" y="0px"
	 viewBox="0 0 354 56" style="enable-background:new 0 0 354 56;" xml:space="preserve">
<style type="text/css">
	.st0{fill:#B7B5B7;}
	.st1{fill:none;}
	.st2{fill:#FFFFFF;}
	.st3{fill:#434542;}
	.st4{fill:#3D3D3E;}
	.st5{fill:#444642;}
</style>
<path class="st0" d="M31.8,16.5c-0.1,0-0.2-0.1-0.3-0.1v-0.9l2-1.4L21.3,9.2l0,0l12.2,4.9V6.4l-2.2-0.9l0,0L29,6.6v1.6l2.3,0.9
	L28.5,8V4.4l-2.2-0.9l0,0L24,4.6v1.6l2.3,0.9l0,0L23.5,6V2.4l-2.2-0.9l0,0l-2.2,0.9V6l-2.8,1.1V3.5l-2.2,0.9V8l-2.8,1.1l0,0l2.3-0.9
	V6.6l-2.3-1.1l0,0L9,6.4v7.7l2,1.4l0,0v0.8c-0.1,0-0.1,0-0.2,0.1c-5,1.7-9.4,4.6-9.4,4.6s0.4,9.6,6.2,19.2S21,55.4,21,55.4
	s7.7-5.4,13.7-15c6-9.5,6.5-19.1,6.5-19.1S36.9,18.3,31.8,16.5z M21.3,11.4l10.2,4l-8.2-3.2l0,0L21.3,11.4L21.3,11.4L21.3,11.4z
	 M21.3,52.2L21.3,52.2L21.3,52.2L21.3,52.2z M31.5,42.4c-5,6.5-10,10.1-10,10.1l-0.3,0.2l0,0l0.3-0.2C21.6,52.5,26.5,48.8,31.5,42.4
	L31.5,42.4z M18.6,4.6l-2.3-1.1v3.6l2.3-0.9V4.6z"/>
<g>
	<polygon class="st1" points="23.4,10.7 23.4,10.7 23.4,10.7 23.4,10.7 23.4,10.7 	"/>
	<polygon class="st1" points="35.7,13.4 23.4,8.5 11.2,13.4 23.4,8.5 	"/>
	<path class="st2" d="M23.4,10.7L23.4,10.7L23.4,10.7z"/>
	<polygon class="st2" points="25.4,11.5 33.7,14.8 33.7,14.8 	"/>
	<polygon class="st2" points="23.4,10.7 23.4,10.7 23.4,10.7 23.4,13.2 23.4,13.2 	"/>
	<polygon class="st2" points="23.4,13.2 23.4,13.2 23.4,52.2 23.4,52.2 	"/>
	<path class="st3" d="M33.9,15.8c-0.1,0-0.2-0.1-0.3-0.1v26.4c-5,6.6-10,10.3-10,10.3l-0.3,0.2v-42l10.2,4.1l0,0l2-1.4L23.4,8.5V0.6
		l-2.2,0.9v3.7l-2.8,1.1V2.6l-2.2,0.9v3.7l-2.8,1.1V4.7l-2.2,0.9v7.8l2,1.4l0,0v0.8c-0.1,0-0.1,0-0.2,0.1c-5.1,1.8-9.5,4.7-9.5,4.7
		S3.9,30.2,9.7,40s13.4,15.4,13.4,15.4s7.7-5.5,13.7-15.2s6.5-19.4,6.5-19.4S39,17.7,33.9,15.8z"/>
	<polygon class="st4" points="33.5,4.7 31.2,5.8 31.2,7.4 33.5,8.3 	"/>
	<polygon class="st4" points="28.5,2.7 26.1,3.7 26.1,5.3 28.5,6.3 	"/>
	<path class="st4" d="M30.1,29.8l-0.7-6.2c0.4-0.4,0.6-1,0.6-1.7c0-1.2-0.6-2.1-1.4-2.1s-1.4,0.9-1.4,2.1c0,0.7,0.2,1.3,0.6,1.7
		l-0.8,5L30.1,29.8z"/>
	<path class="st2" d="M23.4,10.7v41.5l0,0v0.4l0.3-0.2c0,0,4.9-3.7,10-10.3V14.8l-8.3-3.3L23.4,10.7z M27.1,21.8
		c0-1.2,0.6-2.1,1.4-2.1s1.4,0.9,1.4,2.1c0,0.7-0.2,1.3-0.6,1.7l0.7,6.2l-3-1.1l0.7-5.1C27.4,23.1,27.1,22.5,27.1,21.8z M13.4,8.3
		l2.3-1V5.8l-2.3-1.1V8.3z M19.7,21.8c0-1.2-0.6-2.1-1.4-2.1s-1.4,0.9-1.4,2.1c0,0.7,0.2,1.3,0.6,1.7l-0.7,6.2l3.1-1.2l-0.7-5.1
		C19.5,23.1,19.7,22.5,19.7,21.8z M33.5,4.7v3.7l-2.8-1.1V3.5l-2.2-0.9v3.7l-2.8-1.1V1.5l-2.2-0.9v7.8l12.2,5V5.6L33.5,4.7z
		 M18.4,6.3l2.3-1V3.7l-2.3-1.1V6.3z"/>
</g>
<path class="st3" d="M205.9,30.5l9.4,0.1v-1.9l-9.4-0.1v-6l10.8,0.1v-2.1l-13.3-0.1l-0.1,18.4l13.5,0.1v-2.1l-11-0.1L205.9,30.5z
	 M71.7,31.6l-7.1-12h-2.7L61.7,38h2.5l0.1-14.2l6.6,11h1.4L79,23.9l0,14.2h2.5l0.1-18.4H79L71.7,31.6z M91.7,19.8l-8.3,18.4h2.7
	l2.4-5.4l8.4,0.1l2.3,5.4h2.7l-8-18.5L91.7,19.8z M89,31l3.8-8.5l3.5,8.5H89z M115.9,30.6c0.5-0.3,1-0.8,1.3-1.2
	c0.4-0.5,0.7-1,0.9-1.6c0.2-0.6,0.3-1.2,0.3-1.9c0-0.7-0.1-1.4-0.4-2.1s-0.7-1.3-1.2-1.9s-1.2-1-1.9-1.4c-0.7-0.3-1.5-0.5-2.4-0.5
	l-8.5-0.1l-0.1,18.4h2.5v-6.6h5.3l4.5,6.6h2.9l-4.8-7.1C114.8,31.1,115.4,30.9,115.9,30.6z M112.4,29.6h-6V22h5.9
	c0.5,0,0.9,0.1,1.4,0.3c0.4,0.2,0.8,0.5,1.1,0.8c0.3,0.4,0.6,0.8,0.8,1.2c0.2,0.5,0.3,0.9,0.3,1.5c0,0.5-0.1,1-0.3,1.5
	c-0.2,0.5-0.4,0.9-0.7,1.2s-0.7,0.6-1.1,0.8C113.4,29.5,112.9,29.7,112.4,29.6z M233.6,31.4c-0.7-0.8-1.6-1.4-2.7-1.7
	c0.9-0.4,1.6-0.9,2.1-1.7c0.5-0.8,0.8-1.6,0.8-2.5c0-0.6-0.1-1.1-0.3-1.7s-0.5-1.1-0.9-1.5s-0.9-0.8-1.4-1.1
	c-0.6-0.3-1.2-0.4-1.9-0.4l-9.9-0.1L219.3,39l9.5,0.1c0.8,0,1.6-0.1,2.3-0.3s1.3-0.5,1.9-0.9c0.5-0.4,1-0.9,1.3-1.5s0.5-1.2,0.5-1.9
	C234.6,33.2,234.3,32.2,233.6,31.4z M221.9,22.6h6.5c0.4,0,0.8,0.1,1.2,0.2c0.4,0.2,0.7,0.4,0.9,0.7c0.3,0.3,0.5,0.6,0.6,1
	s0.2,0.8,0.2,1.2c0,0.4-0.1,0.8-0.2,1.2c-0.2,0.4-0.4,0.7-0.7,1s-0.6,0.5-1,0.7s-0.8,0.2-1.2,0.2h-6.4L221.9,22.6z M231.8,35.1
	c-0.2,0.4-0.4,0.7-0.7,1s-0.6,0.5-1,0.7s-0.8,0.3-1.3,0.3h-6.9v-6.3h7.1c0.4,0,0.9,0.1,1.2,0.3c0.4,0.2,0.7,0.4,1,0.7
	c0.3,0.3,0.5,0.6,0.6,1c0.2,0.4,0.2,0.8,0.2,1.2C232.1,34.3,232,34.7,231.8,35.1z M153.2,23c-0.8-0.9-1.8-1.6-2.9-2.2
	c-1.1-0.6-2.4-0.8-3.8-0.8c-1.3,0-2.6,0.2-3.8,0.7s-2.2,1.2-3,2c-0.8,0.9-1.5,1.8-2,3c-0.5,1.1-0.7,2.3-0.7,3.5s0.2,2.3,0.7,3.5
	c0.4,1.1,1.1,2.1,1.9,3c0.8,0.9,1.8,1.6,3,2.1c1.1,0.5,2.4,0.8,3.8,0.8c1.3,0,2.6-0.2,3.8-0.7s2.2-1.2,3-2c0.8-0.9,1.5-1.8,2-3
	c0.5-1.1,0.7-2.3,0.7-3.5s-0.2-2.3-0.7-3.4C154.7,24.9,154,23.9,153.2,23z M152.7,32c-0.3,0.9-0.8,1.6-1.4,2.3
	c-0.6,0.7-1.3,1.2-2.2,1.6s-1.8,0.6-2.9,0.6c-1,0-2-0.2-2.8-0.6c-0.8-0.4-1.6-0.9-2.2-1.6c-0.6-0.7-1.1-1.5-1.4-2.3
	c-0.3-0.9-0.5-1.8-0.5-2.7c0-0.9,0.2-1.8,0.5-2.6c0.3-0.9,0.8-1.6,1.4-2.3c0.6-0.7,1.3-1.2,2.2-1.6c0.8-0.4,1.8-0.6,2.9-0.6
	c1,0,1.9,0.2,2.8,0.6c0.8,0.4,1.5,0.9,2.2,1.6c0.6,0.7,1.1,1.4,1.4,2.3c0.3,0.9,0.5,1.8,0.5,2.7C153.2,30.3,153,31.1,152.7,32z
	 M192,36.1l-3.4-7.6l3.5-8h-2.4l-2.7,6.4l-2.6-6.4H182l3.4,8l-3.4,7.6l-6.7-15.8h-2.7l8.2,18.5h2.2l4-8.7l3.9,8.7h2.2l8.5-18.4h-2.8
	L192,36.1z M170.4,30.2c-0.6-0.4-1.3-0.7-2.1-1s-1.8-0.5-2.8-0.7c-0.9-0.2-1.7-0.4-2.3-0.6c-0.7-0.2-1.2-0.4-1.6-0.6
	c-0.4-0.2-0.8-0.5-1-0.8s-0.3-0.7-0.3-1.2c0-0.9,0.4-1.7,1.1-2.2c0.7-0.5,1.9-0.8,3.4-0.8c0.6,0,1.2,0.1,1.7,0.2
	c0.6,0.1,1.1,0.3,1.5,0.5c0.5,0.2,0.9,0.4,1.3,0.6c0.4,0.2,0.7,0.5,0.9,0.7l1.2-1.9c-0.8-0.6-1.8-1.2-2.9-1.5
	c-1.1-0.4-2.3-0.6-3.7-0.6c-1,0-2,0.1-2.9,0.3c-0.9,0.2-1.6,0.6-2.3,1c-0.6,0.5-1.1,1-1.5,1.7s-0.5,1.4-0.5,2.3
	c0,0.7,0.1,1.3,0.4,1.9c0.3,0.5,0.6,1,1.2,1.3c0.5,0.4,1.2,0.7,1.9,0.9c0.8,0.3,1.7,0.5,2.7,0.7c0.9,0.2,1.7,0.4,2.5,0.6
	c0.7,0.2,1.3,0.4,1.8,0.7c0.5,0.3,0.9,0.6,1.1,0.9c0.3,0.4,0.4,0.8,0.4,1.3c0,0.9-0.4,1.6-1.2,2.1s-1.9,0.7-3.3,0.7
	c-0.8,0-1.5-0.1-2.2-0.2c-0.7-0.2-1.4-0.3-2-0.6c-0.6-0.2-1.1-0.5-1.6-0.8s-0.9-0.6-1.2-0.9l-1.2,2c1.1,0.9,2.4,1.5,3.7,2
	c1.4,0.4,2.8,0.7,4.4,0.7c1,0,2-0.1,2.9-0.3s1.6-0.5,2.3-0.9c0.6-0.4,1.2-1,1.5-1.6c0.4-0.6,0.6-1.4,0.6-2.3c0-0.8-0.1-1.5-0.5-2.1
	C171.4,31.1,171,30.6,170.4,30.2z M137.2,20.1h-2.7l-10.3,10.1l0.1-10.2h-2.5l-0.1,18.4h2.5v-5.6l3.5-3.3l7.2,9h2.8l-8.4-10.3
	L137.2,20.1z M148,27.2c0-0.9-0.7-1.7-1.7-1.7c-0.9,0-1.7,0.7-1.7,1.7c0,0.6,0.4,1.2,0.9,1.5l-0.6,4.9h2.8l-0.6-4.9
	C147.7,28.3,148,27.8,148,27.2z"/>
<g>
	<path class="st5" d="M238.6,38c0-0.3,0.1-0.5,0.2-0.7c0.2-0.2,0.4-0.2,0.7-0.2s0.5,0.1,0.7,0.2c0.2,0.2,0.3,0.4,0.3,0.7
		s-0.1,0.5-0.3,0.7s-0.4,0.3-0.7,0.3s-0.5-0.1-0.7-0.3S238.6,38.2,238.6,38z"/>
	<path class="st5" d="M249.9,38.2c-0.3,0.2-0.7,0.4-1.1,0.5c-0.4,0.1-0.9,0.2-1.4,0.2c-0.6,0-1.1-0.1-1.6-0.3
		c-0.4-0.2-0.8-0.5-1-0.8c-0.3-0.4-0.5-0.8-0.6-1.3s-0.2-1.1-0.2-1.7c0-1.4,0.3-2.4,0.9-3.1c0.6-0.7,1.5-1.1,2.6-1.1
		c0.5,0,0.9,0,1.3,0.1c0.4,0.1,0.7,0.2,1,0.3l-0.4,1.1c-0.2-0.1-0.5-0.2-0.8-0.3c-0.3-0.1-0.6-0.1-1-0.1c-1.5,0-2.3,1-2.3,3.1
		c0,0.4,0,0.8,0.1,1.2s0.2,0.7,0.4,1s0.4,0.5,0.7,0.7s0.7,0.3,1.1,0.3c0.4,0,0.7-0.1,1-0.2c0.3-0.1,0.6-0.3,0.7-0.4L249.9,38.2z"/>
	<path class="st5" d="M253.1,34.7c0-1.4,0.3-2.4,0.9-3.1c0.6-0.7,1.5-1.1,2.6-1.1c0.6,0,1.1,0.1,1.6,0.3c0.4,0.2,0.8,0.5,1.1,0.8
		c0.3,0.4,0.5,0.8,0.6,1.3s0.2,1.1,0.2,1.7c0,1.4-0.3,2.4-0.9,3.1c-0.6,0.7-1.5,1.1-2.6,1.1c-0.6,0-1.1-0.1-1.6-0.3
		c-0.4-0.2-0.8-0.5-1.1-0.8c-0.3-0.4-0.5-0.8-0.6-1.3C253.2,35.9,253.1,35.3,253.1,34.7z M254.4,34.7c0,0.4,0,0.8,0.1,1.2
		s0.2,0.7,0.4,1s0.4,0.5,0.7,0.7s0.6,0.3,1,0.3c1.4,0,2.2-1,2.2-3.1c0-0.4,0-0.8-0.1-1.2s-0.2-0.7-0.4-1c-0.2-0.3-0.4-0.5-0.7-0.7
		c-0.3-0.2-0.6-0.2-1-0.2C255.1,31.6,254.4,32.6,254.4,34.7z"/>
	<path class="st5" d="M268.9,38.7v-4.5c0-0.4,0-0.8-0.1-1.1c0-0.3-0.1-0.6-0.2-0.8s-0.3-0.4-0.5-0.5s-0.5-0.2-0.8-0.2
		c-0.5,0-0.9,0.1-1.2,0.4c-0.3,0.3-0.6,0.7-0.7,1.1v5.5h-1.3v-8h0.9l0.2,1h0.1c0.3-0.3,0.6-0.6,1-0.8c0.4-0.2,0.9-0.3,1.5-0.3
		c0.5,0,0.9,0.1,1.3,0.3c0.3,0.2,0.6,0.5,0.8,1c0.2-0.4,0.6-0.7,1-1c0.4-0.2,0.9-0.4,1.5-0.4c0.4,0,0.8,0.1,1.1,0.2
		c0.3,0.1,0.6,0.3,0.8,0.5c0.2,0.3,0.3,0.6,0.4,1s0.1,1,0.1,1.7v4.8h-1.3v-4.8c0-0.4,0-0.7-0.1-1c0-0.3-0.1-0.5-0.2-0.7
		s-0.3-0.3-0.5-0.4s-0.5-0.1-0.8-0.1c-0.5,0-0.9,0.1-1.2,0.4c-0.3,0.3-0.5,0.7-0.6,1.3v5.3L268.9,38.7L268.9,38.7z"/>
	<path class="st5" d="M283.5,27.3l1,0.4l-5.8,13.2l-1-0.4L283.5,27.3z"/>
	<path class="st5" d="M292.9,30.7l1.8,4.7l0.4,1.5l0,0l0.3-1.6l1.4-4.6h1.2l-2.7,8.2h-0.6l-2.1-5.3l-0.3-1.3l0,0l-0.3,1.3l-2,5.3
		h-0.6l-2.8-8.2h1.4l1.6,4.6l0.3,1.6l0,0l0.4-1.6l1.7-4.6C292,30.7,292.9,30.7,292.9,30.7z"/>
	<path class="st5" d="M301.6,28.3c0-0.2,0.1-0.5,0.2-0.6c0.2-0.2,0.4-0.3,0.6-0.3c0.3,0,0.5,0.1,0.7,0.3c0.2,0.2,0.3,0.4,0.3,0.6
		s-0.1,0.4-0.3,0.6c-0.2,0.2-0.4,0.2-0.7,0.2c-0.3,0-0.5-0.1-0.6-0.2C301.7,28.7,301.6,28.5,301.6,28.3z M301.9,30.7h1.3v8h-1.3
		V30.7z"/>
	<path class="st5" d="M313.9,35.9c0,0.5,0,1,0,1.5c0,0.4,0.1,0.9,0.1,1.3h-0.9l-0.3-1.1h-0.1c-0.2,0.4-0.5,0.7-0.9,0.9
		s-0.9,0.4-1.4,0.4c-1.1,0-1.9-0.3-2.4-1s-0.8-1.7-0.8-3.1c0-1.4,0.3-2.4,1-3.1c0.6-0.7,1.5-1.1,2.7-1.1c0.4,0,0.7,0,0.9,0.1
		c0.2,0,0.5,0.1,0.7,0.2v-3.3h1.3L313.9,35.9L313.9,35.9z M310.7,37.8c0.5,0,1-0.1,1.3-0.4c0.3-0.3,0.5-0.7,0.7-1.3v-4
		c-0.2-0.1-0.4-0.3-0.7-0.3c-0.2-0.1-0.6-0.1-1-0.1c-0.7,0-1.3,0.2-1.7,0.7c-0.4,0.5-0.6,1.3-0.6,2.3c0,0.4,0,0.8,0.1,1.2
		s0.2,0.7,0.3,1c0.2,0.3,0.4,0.5,0.6,0.6C310,37.7,310.3,37.8,310.7,37.8z"/>
	<path class="st5" d="M324.6,39.1c0,1-0.3,1.8-0.8,2.3s-1.4,0.7-2.4,0.7c-0.6,0-1.2,0-1.5-0.1c-0.4-0.1-0.7-0.2-1-0.3l0.3-1.1
		c0.2,0.1,0.5,0.2,0.8,0.3s0.7,0.1,1.2,0.1c0.4,0,0.8,0,1.1-0.1c0.3-0.1,0.5-0.2,0.7-0.4s0.3-0.4,0.4-0.7s0.1-0.6,0.1-1V38h-0.1
		c-0.2,0.3-0.5,0.5-0.8,0.7s-0.8,0.2-1.3,0.2c-1.1,0-1.9-0.3-2.4-1s-0.8-1.7-0.8-3.1c0-1.4,0.3-2.4,1-3.1c0.6-0.7,1.6-1.1,2.9-1.1
		c0.6,0,1.1,0,1.6,0.1c0.4,0.1,0.8,0.2,1.2,0.3v8.1H324.6z M321.4,37.7c0.5,0,1-0.1,1.3-0.4c0.3-0.3,0.5-0.7,0.7-1.3v-4
		c-0.4-0.2-1-0.3-1.6-0.3c-0.7,0-1.3,0.2-1.7,0.7c-0.4,0.5-0.6,1.3-0.6,2.3c0,0.4,0,0.9,0.1,1.2c0.1,0.4,0.2,0.7,0.4,1
		c0.2,0.3,0.4,0.5,0.6,0.6C320.7,37.7,321,37.7,321.4,37.7z"/>
	<path class="st5" d="M335,38c-0.3,0.3-0.7,0.5-1.2,0.6s-1,0.2-1.5,0.2c-0.6,0-1.1-0.1-1.6-0.3c-0.4-0.2-0.8-0.5-1.1-0.8
		c-0.3-0.4-0.5-0.8-0.6-1.3s-0.2-1.1-0.2-1.7c0-1.4,0.3-2.4,0.9-3.1c0.6-0.7,1.5-1.1,2.6-1.1c0.4,0,0.7,0,1.1,0.1s0.7,0.2,1,0.5
		c0.3,0.2,0.5,0.5,0.7,1c0.2,0.4,0.3,1,0.3,1.6c0,0.4,0,0.7-0.1,1.2H330c0,0.5,0,0.9,0.1,1.2c0.1,0.4,0.2,0.7,0.4,0.9
		c0.2,0.3,0.5,0.4,0.8,0.6c0.3,0.1,0.7,0.2,1.2,0.2c0.4,0,0.7-0.1,1.1-0.2c0.4-0.1,0.6-0.3,0.8-0.4L335,38z M332.2,31.6
		c-0.6,0-1.1,0.2-1.5,0.5c-0.4,0.3-0.6,0.9-0.7,1.7h4c0-0.8-0.2-1.4-0.5-1.7S332.8,31.6,332.2,31.6z"/>
	<path class="st5" d="M338.5,30.7h1.2v-1.6l1.3-0.4v1.9h2.2v1.1H341v4.4c0,0.6,0.1,0.9,0.2,1.2c0.1,0.2,0.4,0.3,0.7,0.3
		c0.3,0,0.5,0,0.7-0.1s0.4-0.1,0.6-0.2l0.3,1c-0.3,0.1-0.6,0.3-0.9,0.3c-0.3,0.1-0.7,0.1-1.1,0.1c-0.6,0-1.1-0.2-1.4-0.6
		c-0.3-0.4-0.4-1-0.4-1.8v-4.7h-1.2L338.5,30.7L338.5,30.7z"/>
	<path class="st5" d="M351.1,36.5c0-0.3-0.1-0.6-0.3-0.8c-0.2-0.2-0.4-0.3-0.7-0.5c-0.3-0.1-0.6-0.2-0.9-0.4
		c-0.3-0.1-0.6-0.3-0.9-0.4c-0.3-0.2-0.5-0.4-0.7-0.7s-0.3-0.6-0.3-1.1c0-0.8,0.2-1.3,0.7-1.7c0.4-0.4,1-0.5,1.8-0.5
		c0.6,0,1.1,0.1,1.4,0.2c0.4,0.1,0.7,0.2,1,0.4l-0.3,1.1c-0.2-0.1-0.5-0.2-0.9-0.3c-0.3-0.1-0.7-0.1-1.1-0.1c-0.5,0-0.8,0.1-1,0.2
		c-0.2,0.2-0.3,0.4-0.3,0.8c0,0.3,0.1,0.5,0.3,0.6c0.2,0.2,0.4,0.3,0.7,0.4c0.3,0.1,0.6,0.2,0.9,0.4c0.3,0.1,0.6,0.3,0.9,0.5
		s0.5,0.4,0.7,0.7s0.3,0.7,0.3,1.2c0,0.3-0.1,0.7-0.2,1s-0.3,0.6-0.5,0.8s-0.5,0.4-0.9,0.5c-0.3,0.1-0.8,0.2-1.2,0.2
		c-0.6,0-1.1-0.1-1.6-0.2c-0.4-0.1-0.8-0.3-1.1-0.4l0.4-1.1c0.2,0.1,0.6,0.3,1,0.4c0.4,0.1,0.8,0.2,1.2,0.2c0.5,0,0.8-0.1,1.1-0.3
		C350.9,37.3,351.1,37,351.1,36.5z"/>
</g>
</svg>
