<?xml version="1.0" encoding="utf-8"?>
<!-- Generator: Adobe Illustrator 22.1.0, SVG Export Plug-In . SVG Version: 6.00 Build 0)  -->
<svg version="1.1" id="Layer_1" xmlns="http://www.w3.org/2000/svg" xmlns:xlink="http://www.w3.org/1999/xlink" x="0px" y="0px"
	 viewBox="0 0 41.3 56" style="enable-background:new 0 0 41.3 56;" xml:space="preserve">
<style type="text/css">
	.st0{fill:none;}
	.st1{fill:#FFFFFF;}
	.st2{fill:#434542;}
	.st3{fill:#3D3D3E;}
</style>
<g>
	<polygon class="st0" points="20.7,10.7 20.7,10.7 20.7,10.7 20.7,10.7 20.7,10.7 	"/>
	<polygon class="st0" points="33,13.4 20.7,8.5 8.5,13.4 20.7,8.5 	"/>
	<path class="st1" d="M20.7,10.7L20.7,10.7L20.7,10.7z"/>
	<polygon class="st1" points="22.7,11.5 31,14.8 31,14.8 	"/>
	<polygon class="st1" points="20.7,10.7 20.7,10.7 20.7,10.7 20.7,13.2 20.7,13.2 	"/>
	<polygon class="st1" points="20.7,13.2 20.7,13.2 20.7,52.2 20.7,52.2 	"/>
	<path class="st2" d="M31.2,15.8c-0.1,0-0.2-0.1-0.3-0.1v26.4c-5,6.6-10,10.3-10,10.3l-0.3,0.2v-42L31,14.8l0,0l2-1.4L20.7,8.5V0.6
		l-2.2,0.9v3.7l-2.8,1.1V2.6l-2.2,0.9v3.7l-2.8,1.1V4.7L8.5,5.6v7.8l2,1.4l0,0v0.8c-0.1,0-0.1,0-0.2,0.1c-5.1,1.8-9.5,4.7-9.5,4.7
		S1.2,30.2,7,40s13.4,15.4,13.4,15.4s7.7-5.5,13.7-15.2s6.5-19.4,6.5-19.4S36.3,17.7,31.2,15.8z"/>
	<polygon class="st3" points="30.8,4.7 28.5,5.8 28.5,7.4 30.8,8.3 	"/>
	<polygon class="st3" points="25.8,2.7 23.4,3.7 23.4,5.3 25.8,6.3 	"/>
	<path class="st3" d="M27.4,29.8l-0.7-6.2c0.4-0.4,0.6-1,0.6-1.7c0-1.2-0.6-2.1-1.4-2.1s-1.4,0.9-1.4,2.1c0,0.7,0.2,1.3,0.6,1.7
		l-0.7,5.1L27.4,29.8z"/>
	<path class="st1" d="M20.7,10.7v41.5l0,0v0.4l0.3-0.2c0,0,4.9-3.7,10-10.3V14.8l-8.3-3.3L20.7,10.7z M24.4,21.8
		c0-1.2,0.6-2.1,1.4-2.1s1.4,0.9,1.4,2.1c0,0.7-0.2,1.3-0.6,1.7l0.7,6.2l-3.1-1.2l0.7-5.1C24.7,23.1,24.4,22.5,24.4,21.8z M10.7,8.3
		l2.3-1V5.8l-2.3-1.1V8.3z M17,21.8c0-1.2-0.6-2.1-1.4-2.1c-0.8,0-1.4,0.9-1.4,2.1c0,0.7,0.2,1.3,0.6,1.7l-0.7,6.2l3.1-1.2l-0.7-5.1
		C16.8,23.1,17,22.5,17,21.8z M30.8,4.7v3.7L28,7.2V3.5l-2.2-0.9v3.7L23,5.2V1.5l-2.2-0.9v7.8l12.2,5V5.6L30.8,4.7z M15.7,6.3l2.3-1
		V3.7l-2.3-1.1V6.3z"/>
</g>
</svg>
