<?xml version="1.0" encoding="utf-8"?>
<!-- Generator: Adobe Illustrator 22.1.0, SVG Export Plug-In . SVG Version: 6.00 Build 0)  -->
<svg version="1.1" id="Layer_1" xmlns="http://www.w3.org/2000/svg" xmlns:xlink="http://www.w3.org/1999/xlink" x="0px" y="0px"
	 viewBox="0 0 345.3 24" style="enable-background:new 0 0 345.3 24;" xml:space="preserve">
<style type="text/css">
	.st0{fill:#434541;}
</style>
<g>
	<path class="st0" d="M7.5,5H9L6.2,18.3H4.7L7.5,5z"/>
	<path class="st0" d="M14.8,18.3l1.3-6c0.1-0.2,0.1-0.5,0.1-0.7c0-0.2,0.1-0.4,0.1-0.6c0-0.4-0.1-0.7-0.3-0.9
		c-0.2-0.2-0.5-0.3-1-0.3c-0.3,0-0.7,0.1-1,0.2c-0.3,0.2-0.6,0.3-0.9,0.6c-0.3,0.2-0.5,0.5-0.7,0.8s-0.4,0.6-0.6,0.8l-1.3,6.1H9.2
		l2-9.5h1l-0.1,1.6h0.1c0.2-0.2,0.4-0.4,0.6-0.6c0.2-0.2,0.5-0.4,0.8-0.6s0.6-0.3,1-0.4s0.7-0.2,1.2-0.2c0.6,0,1.1,0.2,1.5,0.5
		s0.6,0.8,0.6,1.6c0,0.4-0.1,0.8-0.2,1.4l-1.3,6.3H14.8z"/>
	<path class="st0" d="M31.3,14.6c-0.1,0.5-0.2,0.9-0.2,1.4c0,0.5-0.1,0.9-0.1,1.3c0,0.2,0,0.4,0,0.5s0,0.3,0,0.5h-1l-0.3-1.7h-0.1
		c-0.2,0.2-0.3,0.4-0.6,0.7s-0.5,0.4-0.7,0.6s-0.6,0.3-0.9,0.4c-0.3,0.1-0.6,0.2-1,0.2c-1.5,0-2.3-1-2.3-2.9c0-0.8,0.1-1.6,0.3-2.5
		s0.5-1.6,1-2.3c0.4-0.7,1-1.2,1.7-1.7c0.7-0.4,1.5-0.6,2.5-0.6c0.4,0,0.8,0,1.3,0.1c0.5,0.1,1,0.2,1.4,0.3L31.3,14.6z M27.1,17.3
		c0.3,0,0.6-0.1,0.9-0.2c0.3-0.1,0.5-0.3,0.8-0.5c0.2-0.2,0.5-0.4,0.7-0.7c0.2-0.2,0.3-0.5,0.5-0.7l1.1-5.1
		c-0.4-0.2-0.9-0.3-1.4-0.3c-0.6,0-1.1,0.2-1.5,0.5c-0.4,0.3-0.8,0.8-1.1,1.3c-0.3,0.5-0.5,1.2-0.7,1.9c-0.2,0.7-0.2,1.4-0.2,2.1
		c0,0.5,0.1,0.9,0.3,1.2C26.4,17.2,26.7,17.3,27.1,17.3z"/>
	<path class="st0" d="M39.2,8.8h1.4L41,7l1.5-0.4L42,8.8h2.5L44.2,10h-2.5l-1.2,5.7c0,0.2,0,0.3-0.1,0.4c0,0.1,0,0.2,0,0.3
		c0,0.3,0.1,0.5,0.2,0.6c0.1,0.1,0.3,0.2,0.6,0.2c0.3,0,0.6,0,0.8-0.1c0.3-0.1,0.5-0.2,0.8-0.3V18c-0.3,0.2-0.6,0.3-1,0.4
		c-0.4,0.1-0.8,0.1-1.2,0.1c-1.2,0-1.7-0.5-1.7-1.6c0-0.2,0-0.5,0.1-0.8l1.3-6.1h-1.4L39.2,8.8z"/>
	<path class="st0" d="M46.6,8.8H48l-2,9.5h-1.4L46.6,8.8z M46.9,5.9c0-0.3,0.1-0.5,0.3-0.7c0.2-0.2,0.4-0.3,0.7-0.3s0.5,0.1,0.7,0.3
		c0.2,0.2,0.3,0.4,0.3,0.7s-0.1,0.5-0.3,0.7C48.4,6.9,48.2,7,47.9,7s-0.5-0.1-0.7-0.3S46.9,6.2,46.9,5.9z"/>
	<path class="st0" d="M54,18.3l1.1-5.4c0.1-0.4,0.2-0.8,0.2-1.2c0.1-0.3,0.1-0.6,0.1-0.9c0-0.3-0.1-0.6-0.2-0.8
		c-0.1-0.2-0.3-0.3-0.6-0.3c-0.3,0-0.6,0.1-0.9,0.2s-0.6,0.4-0.9,0.6c-0.3,0.2-0.5,0.5-0.7,0.8c-0.2,0.3-0.4,0.5-0.5,0.8l-1.3,6.1
		h-1.4l2-9.5h1l-0.1,1.6h0.1c0.2-0.2,0.4-0.4,0.7-0.6c0.2-0.2,0.5-0.4,0.8-0.6c0.3-0.2,0.6-0.3,0.9-0.4c0.3-0.1,0.7-0.2,1.1-0.2
		c0.6,0,1,0.2,1.1,0.5c0.2,0.4,0.3,0.8,0.3,1.5c0.2-0.2,0.4-0.5,0.7-0.7c0.3-0.2,0.5-0.5,0.8-0.6c0.3-0.2,0.6-0.3,0.9-0.5
		c0.3-0.1,0.7-0.2,1-0.2c0.6,0,1,0.1,1.3,0.4c0.3,0.3,0.5,0.8,0.5,1.5c0,0.5-0.1,1.2-0.3,2.1l-1.2,5.7h-1.4l1.2-5.7
		c0.1-0.4,0.1-0.7,0.2-1c0-0.3,0.1-0.5,0.1-0.8c0-0.3-0.1-0.6-0.2-0.8S60,9.8,59.6,9.8c-0.3,0-0.5,0.1-0.8,0.3s-0.6,0.4-0.9,0.6
		s-0.5,0.5-0.7,0.8s-0.4,0.6-0.5,0.8l-1.2,6H54z"/>
	<path class="st0" d="M70,17.4c-0.4,0.4-1,0.7-1.6,0.9c-0.6,0.2-1.2,0.3-1.8,0.3c-1,0-1.8-0.3-2.3-0.9c-0.5-0.6-0.8-1.4-0.8-2.4
		c0-1,0.1-2,0.4-2.8c0.3-0.8,0.7-1.5,1.1-2.1c0.5-0.6,1-1,1.6-1.3c0.6-0.3,1.2-0.5,1.8-0.5c0.5,0,0.9,0.1,1.2,0.2
		c0.3,0.1,0.6,0.3,0.8,0.5c0.2,0.2,0.4,0.4,0.5,0.7c0.1,0.3,0.2,0.6,0.2,0.9c0,0.9-0.4,1.6-1.3,2.1c-0.9,0.5-2.1,0.8-3.8,0.8
		c-0.2,0-0.3,0-0.5,0c-0.2,0-0.3,0-0.5,0c-0.1,0.2-0.1,0.5-0.1,0.7s0,0.4,0,0.6c0,0.7,0.2,1.3,0.5,1.7c0.3,0.4,0.8,0.7,1.5,0.7
		c0.6,0,1.1-0.1,1.5-0.3c0.5-0.2,0.8-0.4,1.1-0.6L70,17.4z M68.4,9.8c-0.7,0-1.3,0.2-1.8,0.7c-0.5,0.5-0.9,1.2-1.2,2.1
		c0.5,0,1,0,1.5,0c0.5,0,1-0.1,1.4-0.2s0.8-0.3,1.1-0.5c0.3-0.2,0.4-0.6,0.4-1c0-0.1,0-0.3-0.1-0.4s-0.1-0.3-0.2-0.4
		c-0.1-0.1-0.2-0.2-0.4-0.3C68.9,9.9,68.7,9.8,68.4,9.8z"/>
	<path class="st0" d="M77.4,15.4c0-1,0.1-1.9,0.4-2.7c0.3-0.8,0.6-1.5,1.1-2.1s1-1.1,1.6-1.4c0.6-0.3,1.2-0.5,1.9-0.5
		c0.5,0,1,0.1,1.4,0.3s0.7,0.4,0.9,0.7c0.2,0.3,0.4,0.6,0.5,1c0.1,0.4,0.2,0.8,0.2,1.2c0,0.9-0.1,1.8-0.4,2.7
		c-0.2,0.8-0.6,1.5-1,2.1c-0.4,0.6-0.9,1.1-1.5,1.4c-0.6,0.3-1.2,0.5-1.9,0.5c-0.6,0-1-0.1-1.4-0.3c-0.4-0.2-0.7-0.4-0.9-0.7
		c-0.2-0.3-0.4-0.6-0.5-1C77.5,16.1,77.4,15.7,77.4,15.4z M78.9,15c0,0.7,0.1,1.3,0.4,1.7s0.7,0.6,1.3,0.6c0.4,0,0.8-0.1,1.2-0.4
		c0.4-0.3,0.7-0.7,1-1.2c0.3-0.5,0.5-1.1,0.7-1.7c0.2-0.7,0.3-1.3,0.3-2c0-0.6-0.1-1.2-0.4-1.5s-0.7-0.6-1.3-0.6
		c-0.4,0-0.8,0.1-1.2,0.4s-0.7,0.7-1,1.1c-0.3,0.5-0.5,1-0.7,1.7C79,13.7,78.9,14.3,78.9,15z"/>
	<path class="st0" d="M89.8,10L88.3,19c-0.1,0.5-0.2,0.9-0.3,1.3s-0.3,0.7-0.5,1c-0.2,0.3-0.5,0.5-0.8,0.7c-0.3,0.2-0.7,0.3-1.2,0.3
		c-0.4,0-0.7,0-1.1-0.1s-0.6-0.2-0.9-0.3l0.4-1.1c0.3,0.1,0.5,0.1,0.7,0.2c0.2,0,0.5,0,0.8,0c0.5,0,0.8-0.2,1.1-0.7
		c0.2-0.5,0.4-1.2,0.6-2.2l1.3-8.1h-1.5l0.2-1.2h1.4l0.2-1.3c0.1-0.5,0.2-0.9,0.3-1.2c0.1-0.3,0.3-0.6,0.5-0.9
		c0.2-0.2,0.5-0.4,0.8-0.5c0.3-0.1,0.7-0.2,1.1-0.2c0.4,0,0.8,0,1.2,0.1c0.4,0.1,0.7,0.2,1.1,0.3l-0.4,1.1C92.8,6.1,92.2,6,91.6,6
		c-0.5,0-0.8,0.2-1,0.5c-0.2,0.3-0.4,0.8-0.5,1.5L90,8.8h1.9L91.7,10H89.8z"/>
	<path class="st0" d="M100,8.8l-1.3,6.3c-0.1,0.3-0.1,0.7-0.1,0.9c0,0.4,0.1,0.6,0.2,0.9c0.1,0.2,0.4,0.4,0.8,0.4
		c0.3,0,0.6-0.1,0.9-0.2c0.3-0.2,0.6-0.3,0.9-0.6s0.5-0.5,0.8-0.8c0.2-0.3,0.4-0.6,0.6-0.9l1.3-6h1.4l-1.2,5.6
		c-0.1,0.2-0.1,0.5-0.2,0.8c-0.1,0.3-0.1,0.6-0.1,1c0,0.3-0.1,0.7-0.1,1s0,0.6,0,0.8v0.2h-1.1v-1.8h-0.1c-0.2,0.3-0.4,0.5-0.7,0.7
		s-0.5,0.5-0.8,0.6c-0.3,0.2-0.6,0.3-1,0.5c-0.3,0.1-0.7,0.2-1.1,0.2c-0.3,0-0.5,0-0.8-0.1c-0.2-0.1-0.4-0.2-0.6-0.3
		s-0.3-0.4-0.4-0.6s-0.2-0.6-0.2-1c0-0.4,0.1-0.9,0.2-1.5l1.3-6.2H100z"/>
	<path class="st0" d="M111.9,18.3l1.3-6c0.1-0.2,0.1-0.5,0.1-0.7c0-0.2,0.1-0.4,0.1-0.6c0-0.4-0.1-0.7-0.3-0.9
		c-0.2-0.2-0.5-0.3-1-0.3c-0.3,0-0.7,0.1-1,0.2c-0.3,0.2-0.6,0.3-0.9,0.6c-0.3,0.2-0.5,0.5-0.7,0.8s-0.4,0.6-0.6,0.8l-1.3,6.1h-1.4
		l2-9.5h1l-0.1,1.6h0.1c0.2-0.2,0.4-0.4,0.6-0.6c0.2-0.2,0.5-0.4,0.8-0.6s0.6-0.3,1-0.4s0.7-0.2,1.2-0.2c0.6,0,1.1,0.2,1.5,0.5
		s0.6,0.8,0.6,1.6c0,0.4-0.1,0.8-0.2,1.4l-1.3,6.3H111.9z"/>
	<path class="st0" d="M122.4,17.5c-0.2,0.2-0.4,0.3-0.7,0.4c-0.2,0.1-0.5,0.2-0.8,0.3c-0.3,0.1-0.5,0.2-0.8,0.2
		c-0.3,0.1-0.5,0.1-0.7,0.1c-0.6,0-1.1-0.1-1.5-0.3s-0.7-0.4-0.9-0.7c-0.2-0.3-0.4-0.6-0.5-1c-0.1-0.4-0.1-0.7-0.1-1
		c0-1.1,0.1-2,0.4-2.9c0.3-0.9,0.7-1.6,1.2-2.2s1-1,1.7-1.4c0.6-0.3,1.3-0.5,2-0.5c0.5,0,0.9,0,1.2,0.1s0.6,0.2,0.8,0.3l-0.5,1.2
		c-0.2-0.1-0.5-0.2-0.8-0.3c-0.3-0.1-0.7-0.1-1-0.1c-0.4,0-0.9,0.1-1.3,0.4c-0.4,0.3-0.8,0.7-1.1,1.1c-0.3,0.5-0.6,1-0.8,1.6
		c-0.2,0.6-0.3,1.2-0.3,1.9c0,0.8,0.2,1.4,0.5,1.8c0.3,0.4,0.8,0.6,1.4,0.6c0.4,0,0.8-0.1,1.2-0.3c0.4-0.2,0.8-0.3,1-0.5L122.4,17.5
		z"/>
	<path class="st0" d="M130.4,17.4c-0.4,0.4-1,0.7-1.6,0.9c-0.6,0.2-1.2,0.3-1.8,0.3c-1,0-1.8-0.3-2.3-0.9c-0.5-0.6-0.8-1.4-0.8-2.4
		c0-1,0.1-2,0.4-2.8c0.3-0.8,0.7-1.5,1.1-2.1c0.5-0.6,1-1,1.6-1.3c0.6-0.3,1.2-0.5,1.8-0.5c0.5,0,0.9,0.1,1.2,0.2
		c0.3,0.1,0.6,0.3,0.8,0.5c0.2,0.2,0.4,0.4,0.5,0.7c0.1,0.3,0.2,0.6,0.2,0.9c0,0.9-0.4,1.6-1.3,2.1c-0.9,0.5-2.1,0.8-3.8,0.8
		c-0.2,0-0.3,0-0.5,0c-0.2,0-0.3,0-0.5,0c-0.1,0.2-0.1,0.5-0.1,0.7s0,0.4,0,0.6c0,0.7,0.2,1.3,0.5,1.7c0.3,0.4,0.8,0.7,1.5,0.7
		c0.6,0,1.1-0.1,1.5-0.3c0.5-0.2,0.8-0.4,1.1-0.6L130.4,17.4z M128.7,9.8c-0.7,0-1.3,0.2-1.8,0.7c-0.5,0.5-0.9,1.2-1.2,2.1
		c0.5,0,1,0,1.5,0c0.5,0,1-0.1,1.4-0.2s0.8-0.3,1.1-0.5c0.3-0.2,0.4-0.6,0.4-1c0-0.1,0-0.3-0.1-0.4s-0.1-0.3-0.2-0.4
		c-0.1-0.1-0.2-0.2-0.4-0.3C129.2,9.9,129,9.8,128.7,9.8z"/>
	<path class="st0" d="M138.5,10.1c-0.1,0-0.2,0-0.4-0.1c-0.1,0-0.2,0-0.3,0c-0.6,0-1.2,0.2-1.7,0.6c-0.5,0.4-0.8,0.9-1.1,1.5
		l-1.3,6.2h-1.4l2-9.5h1v1.6h0.1c0.2-0.2,0.3-0.5,0.5-0.7c0.2-0.2,0.4-0.4,0.6-0.6c0.2-0.2,0.4-0.3,0.7-0.4c0.3-0.1,0.5-0.1,0.8-0.1
		c0.3,0,0.6,0,0.9,0.1L138.5,10.1z"/>
	<path class="st0" d="M139.8,8.8h1.4l0.4-1.9l1.5-0.4l-0.5,2.3h2.5l-0.3,1.2h-2.5l-1.2,5.7c0,0.2,0,0.3-0.1,0.4c0,0.1,0,0.2,0,0.3
		c0,0.3,0.1,0.5,0.2,0.6c0.1,0.1,0.3,0.2,0.6,0.2c0.3,0,0.6,0,0.8-0.1c0.3-0.1,0.5-0.2,0.8-0.3V18c-0.3,0.2-0.6,0.3-1,0.4
		c-0.4,0.1-0.8,0.1-1.2,0.1c-1.2,0-1.7-0.5-1.7-1.6c0-0.2,0-0.5,0.1-0.8L141,10h-1.4L139.8,8.8z"/>
	<path class="st0" d="M152.1,14.6c-0.1,0.5-0.2,0.9-0.2,1.4c0,0.5-0.1,0.9-0.1,1.3c0,0.2,0,0.4,0,0.5s0,0.3,0,0.5h-1l-0.3-1.7h-0.1
		c-0.2,0.2-0.3,0.4-0.6,0.7s-0.5,0.4-0.7,0.6s-0.6,0.3-0.9,0.4c-0.3,0.1-0.6,0.2-1,0.2c-1.5,0-2.3-1-2.3-2.9c0-0.8,0.1-1.6,0.3-2.5
		s0.5-1.6,1-2.3c0.4-0.7,1-1.2,1.7-1.7c0.7-0.4,1.5-0.6,2.5-0.6c0.4,0,0.8,0,1.3,0.1c0.5,0.1,1,0.2,1.4,0.3L152.1,14.6z M147.8,17.3
		c0.3,0,0.6-0.1,0.9-0.2c0.3-0.1,0.5-0.3,0.8-0.5c0.2-0.2,0.5-0.4,0.7-0.7c0.2-0.2,0.3-0.5,0.5-0.7l1.1-5.1
		c-0.4-0.2-0.9-0.3-1.4-0.3c-0.6,0-1.1,0.2-1.5,0.5c-0.4,0.3-0.8,0.8-1.1,1.3c-0.3,0.5-0.5,1.2-0.7,1.9c-0.2,0.7-0.2,1.4-0.2,2.1
		c0,0.5,0.1,0.9,0.3,1.2C147.1,17.2,147.4,17.3,147.8,17.3z"/>
	<path class="st0" d="M156.3,8.8h1.4l-2,9.5h-1.4L156.3,8.8z M156.6,5.9c0-0.3,0.1-0.5,0.3-0.7c0.2-0.2,0.4-0.3,0.7-0.3
		s0.5,0.1,0.7,0.3c0.2,0.2,0.3,0.4,0.3,0.7s-0.1,0.5-0.3,0.7c-0.2,0.2-0.4,0.3-0.7,0.3s-0.5-0.1-0.7-0.3S156.6,6.2,156.6,5.9z"/>
	<path class="st0" d="M164.2,18.3l1.3-6c0.1-0.2,0.1-0.5,0.1-0.7c0-0.2,0.1-0.4,0.1-0.6c0-0.4-0.1-0.7-0.3-0.9
		c-0.2-0.2-0.5-0.3-1-0.3c-0.3,0-0.7,0.1-1,0.2c-0.3,0.2-0.6,0.3-0.9,0.6c-0.3,0.2-0.5,0.5-0.7,0.8s-0.4,0.6-0.6,0.8l-1.3,6.1h-1.4
		l2-9.5h1l-0.1,1.6h0.1c0.2-0.2,0.4-0.4,0.6-0.6c0.2-0.2,0.5-0.4,0.8-0.6s0.6-0.3,1-0.4s0.7-0.2,1.2-0.2c0.6,0,1.1,0.2,1.5,0.5
		s0.6,0.8,0.6,1.6c0,0.4-0.1,0.8-0.2,1.4l-1.3,6.3H164.2z"/>
	<path class="st0" d="M169.2,8.8h1.4L171,7l1.5-0.4L172,8.8h2.5l-0.3,1.2h-2.5l-1.2,5.7c0,0.2,0,0.3-0.1,0.4c0,0.1,0,0.2,0,0.3
		c0,0.3,0.1,0.5,0.2,0.6c0.1,0.1,0.3,0.2,0.6,0.2c0.3,0,0.6,0,0.8-0.1c0.3-0.1,0.5-0.2,0.8-0.3V18c-0.3,0.2-0.6,0.3-1,0.4
		c-0.4,0.1-0.8,0.1-1.2,0.1c-1.2,0-1.7-0.5-1.7-1.6c0-0.2,0-0.5,0.1-0.8l1.3-6.1h-1.4L169.2,8.8z"/>
	<path class="st0" d="M177.9,15l0.1,1.8h0.1l0.7-1.8l3.1-6.1h1.5l-4.5,8.5c-0.3,0.6-0.7,1.2-1,1.8c-0.3,0.6-0.7,1.1-1,1.6
		s-0.7,0.8-1.1,1.1c-0.4,0.3-0.7,0.4-1.1,0.4c-0.2,0-0.4,0-0.6,0c-0.2,0-0.3-0.1-0.4-0.1l0.5-1.3c0.1,0.1,0.3,0.1,0.5,0.1
		c0.4,0,0.7-0.2,1.1-0.6c0.4-0.4,0.8-1,1.2-1.9l-1.6-9.5h1.5L177.9,15z"/>
	<path class="st0" d="M182.2,17.7c0-0.3,0.1-0.6,0.3-0.8c0.2-0.2,0.5-0.3,0.9-0.3c0.3,0,0.6,0.1,0.7,0.3c0.2,0.2,0.3,0.5,0.3,0.7
		c0,0.4-0.1,0.8-0.2,1.1s-0.3,0.7-0.6,1c-0.2,0.3-0.5,0.6-0.8,0.8c-0.3,0.2-0.7,0.4-1.1,0.6l-0.3-0.7c0.5-0.2,0.9-0.5,1.2-0.8
		c0.3-0.4,0.5-0.8,0.5-1.1c-0.1,0-0.1,0-0.2,0c-0.2,0-0.4-0.1-0.5-0.2C182.3,18.1,182.2,17.9,182.2,17.7z"/>
	<path class="st0" d="M194.8,10l-1.5,8.9c-0.1,0.5-0.2,0.9-0.3,1.3s-0.3,0.7-0.5,1c-0.2,0.3-0.5,0.5-0.8,0.7
		c-0.3,0.2-0.7,0.3-1.2,0.3c-0.4,0-0.7,0-1.1-0.1s-0.6-0.2-0.9-0.3l0.4-1.1c0.3,0.1,0.5,0.1,0.7,0.2c0.2,0,0.5,0,0.8,0
		c0.5,0,0.8-0.2,1.1-0.7c0.2-0.5,0.4-1.2,0.6-2.2l1.3-8.1h-1.5l0.2-1.2h1.4l0.2-1.3c0.1-0.5,0.2-0.9,0.3-1.2
		c0.1-0.3,0.3-0.6,0.5-0.9c0.2-0.2,0.5-0.4,0.8-0.5c0.3-0.1,0.7-0.2,1.1-0.2c0.4,0,0.8,0,1.2,0.1c0.4,0.1,0.7,0.2,1.1,0.3l-0.4,1.1
		c-0.6-0.2-1.2-0.4-1.8-0.4c-0.5,0-0.8,0.2-1,0.5c-0.2,0.3-0.4,0.8-0.5,1.5l-0.1,0.8h1.9l-0.2,1.2H194.8z"/>
	<path class="st0" d="M203.6,14.6c-0.1,0.5-0.2,0.9-0.2,1.4c0,0.5-0.1,0.9-0.1,1.3c0,0.2,0,0.4,0,0.5s0,0.3,0,0.5h-1l-0.3-1.7H202
		c-0.2,0.2-0.3,0.4-0.6,0.7c-0.2,0.2-0.5,0.4-0.7,0.6s-0.6,0.3-0.9,0.4c-0.3,0.1-0.6,0.2-1,0.2c-1.5,0-2.3-1-2.3-2.9
		c0-0.8,0.1-1.6,0.3-2.5c0.2-0.8,0.5-1.6,1-2.3c0.4-0.7,1-1.2,1.7-1.7c0.7-0.4,1.5-0.6,2.5-0.6c0.4,0,0.8,0,1.3,0.1
		c0.5,0.1,1,0.2,1.4,0.3L203.6,14.6z M199.3,17.3c0.3,0,0.6-0.1,0.9-0.2c0.3-0.1,0.5-0.3,0.8-0.5c0.2-0.2,0.5-0.4,0.7-0.7
		c0.2-0.2,0.3-0.5,0.5-0.7l1.1-5.1c-0.4-0.2-0.9-0.3-1.4-0.3s-1.1,0.2-1.5,0.5c-0.4,0.3-0.8,0.8-1.1,1.3c-0.3,0.5-0.5,1.2-0.7,1.9
		c-0.2,0.7-0.2,1.4-0.2,2.1c0,0.5,0.1,0.9,0.3,1.2S198.9,17.3,199.3,17.3z"/>
	<path class="st0" d="M211.9,17.5c-0.2,0.2-0.4,0.3-0.7,0.4c-0.2,0.1-0.5,0.2-0.8,0.3c-0.3,0.1-0.5,0.2-0.8,0.2
		c-0.3,0.1-0.5,0.1-0.7,0.1c-0.6,0-1.1-0.1-1.5-0.3s-0.7-0.4-0.9-0.7c-0.2-0.3-0.4-0.6-0.5-1c-0.1-0.4-0.1-0.7-0.1-1
		c0-1.1,0.1-2,0.4-2.9c0.3-0.9,0.7-1.6,1.2-2.2s1-1,1.7-1.4c0.6-0.3,1.3-0.5,2-0.5c0.5,0,0.9,0,1.2,0.1s0.6,0.2,0.8,0.3l-0.5,1.2
		c-0.2-0.1-0.5-0.2-0.8-0.3c-0.3-0.1-0.7-0.1-1-0.1c-0.4,0-0.9,0.1-1.3,0.4c-0.4,0.3-0.8,0.7-1.1,1.1s-0.6,1-0.8,1.6
		c-0.2,0.6-0.3,1.2-0.3,1.9c0,0.8,0.2,1.4,0.5,1.8c0.3,0.4,0.8,0.6,1.4,0.6c0.4,0,0.8-0.1,1.2-0.3c0.4-0.2,0.8-0.3,1-0.5L211.9,17.5
		z"/>
	<path class="st0" d="M214.6,8.8h1.4l0.4-1.9l1.5-0.4l-0.5,2.3h2.5l-0.3,1.2h-2.5l-1.2,5.7c0,0.2,0,0.3-0.1,0.4c0,0.1,0,0.2,0,0.3
		c0,0.3,0.1,0.5,0.2,0.6c0.1,0.1,0.3,0.2,0.6,0.2c0.3,0,0.6,0,0.8-0.1s0.5-0.2,0.8-0.3V18c-0.3,0.2-0.6,0.3-1,0.4
		c-0.4,0.1-0.8,0.1-1.2,0.1c-1.2,0-1.7-0.5-1.7-1.6c0-0.2,0-0.5,0.1-0.8l1.3-6.1h-1.4L214.6,8.8z"/>
	<path class="st0" d="M224.3,15.6c0-0.3-0.1-0.6-0.2-0.8c-0.2-0.2-0.4-0.4-0.6-0.6s-0.5-0.4-0.8-0.5s-0.6-0.4-0.8-0.6
		s-0.5-0.5-0.6-0.8c-0.2-0.3-0.2-0.7-0.2-1.1c0-0.4,0.1-0.7,0.3-1c0.2-0.3,0.4-0.6,0.7-0.8c0.3-0.2,0.7-0.4,1.1-0.5
		c0.4-0.1,0.9-0.2,1.3-0.2c0.7,0,1.2,0,1.6,0.1c0.4,0.1,0.7,0.2,1,0.4l-0.5,1.1c-0.5-0.3-1.2-0.4-2.1-0.4c-0.5,0-1,0.1-1.3,0.3
		s-0.5,0.6-0.5,1c0,0.3,0.1,0.5,0.2,0.7c0.2,0.2,0.4,0.4,0.6,0.6c0.3,0.2,0.5,0.4,0.8,0.5c0.3,0.2,0.6,0.4,0.8,0.6
		c0.3,0.2,0.5,0.5,0.6,0.8c0.2,0.3,0.2,0.7,0.2,1.1c0,1-0.3,1.7-1,2.2c-0.7,0.5-1.6,0.8-2.7,0.8c-0.6,0-1.1-0.1-1.6-0.2
		c-0.5-0.1-0.9-0.3-1.1-0.4l0.5-1.2c0.3,0.2,0.6,0.3,1,0.4c0.4,0.1,0.8,0.2,1.3,0.2c0.6,0,1.1-0.1,1.5-0.4S224.3,16.2,224.3,15.6z"
		/>
	<path class="st0" d="M234.8,8.8h1l-0.1,1.6h0.1c0.2-0.2,0.4-0.5,0.6-0.7c0.2-0.2,0.5-0.4,0.7-0.6c0.3-0.2,0.6-0.3,0.9-0.4
		c0.3-0.1,0.7-0.2,1-0.2c0.3,0,0.6,0,0.9,0.1s0.5,0.3,0.7,0.5c0.2,0.2,0.4,0.5,0.5,0.9c0.1,0.4,0.2,0.8,0.2,1.3c0,1.1-0.2,2.1-0.5,3
		c-0.3,0.9-0.7,1.6-1.2,2.2c-0.5,0.6-1,1.1-1.7,1.4c-0.6,0.3-1.2,0.5-1.8,0.5c-0.4,0-0.8,0-1.2-0.1c-0.3-0.1-0.6-0.2-0.7-0.3
		l-0.8,3.9H232L234.8,8.8z M238.4,9.8c-0.3,0-0.7,0.1-1,0.3c-0.3,0.2-0.6,0.4-0.9,0.7c-0.3,0.3-0.5,0.5-0.7,0.8
		c-0.2,0.3-0.4,0.6-0.5,0.8l-0.9,4.5c0.2,0.2,0.4,0.3,0.7,0.3c0.2,0.1,0.5,0.1,0.7,0.1c0.5,0,1-0.1,1.4-0.4c0.4-0.3,0.9-0.7,1.2-1.2
		c0.4-0.5,0.6-1.1,0.8-1.8s0.3-1.5,0.3-2.4c0-0.5-0.1-0.9-0.3-1.3C239.2,10,238.8,9.8,238.4,9.8z"/>
	<path class="st0" d="M248.5,10.1c-0.1,0-0.2,0-0.4-0.1s-0.2,0-0.3,0c-0.6,0-1.2,0.2-1.7,0.6c-0.5,0.4-0.8,0.9-1.1,1.5l-1.3,6.2
		h-1.4l2-9.5h1v1.6h0.1c0.2-0.2,0.3-0.5,0.5-0.7c0.2-0.2,0.4-0.4,0.6-0.6c0.2-0.2,0.4-0.3,0.7-0.4c0.3-0.1,0.5-0.1,0.8-0.1
		c0.3,0,0.6,0,0.9,0.1L248.5,10.1z"/>
	<path class="st0" d="M248.6,15.4c0-1,0.1-1.9,0.4-2.7c0.3-0.8,0.6-1.5,1.1-2.1c0.5-0.6,1-1.1,1.6-1.4c0.6-0.3,1.2-0.5,1.9-0.5
		c0.5,0,1,0.1,1.4,0.3s0.7,0.4,0.9,0.7c0.2,0.3,0.4,0.6,0.5,1c0.1,0.4,0.2,0.8,0.2,1.2c0,0.9-0.1,1.8-0.4,2.7
		c-0.2,0.8-0.6,1.5-1,2.1c-0.4,0.6-0.9,1.1-1.5,1.4s-1.2,0.5-1.9,0.5c-0.6,0-1-0.1-1.4-0.3c-0.4-0.2-0.7-0.4-0.9-0.7
		c-0.2-0.3-0.4-0.6-0.5-1C248.7,16.1,248.6,15.7,248.6,15.4z M250.1,15c0,0.7,0.1,1.3,0.4,1.7s0.7,0.6,1.3,0.6
		c0.4,0,0.8-0.1,1.2-0.4c0.4-0.3,0.7-0.7,1-1.2c0.3-0.5,0.5-1.1,0.7-1.7s0.3-1.3,0.3-2c0-0.6-0.1-1.2-0.4-1.5s-0.7-0.6-1.3-0.6
		c-0.4,0-0.8,0.1-1.2,0.4c-0.4,0.3-0.7,0.7-1,1.1c-0.3,0.5-0.5,1-0.7,1.7C250.2,13.7,250.1,14.3,250.1,15z"/>
	<path class="st0" d="M260.5,14.4l0.2,1.8h0l0.8-1.8l3.2-5.5h1.6l-5.9,9.7h-0.6L258,8.8h1.5L260.5,14.4z"/>
	<path class="st0" d="M268.2,8.8h1.4l-2,9.5h-1.4L268.2,8.8z M268.5,5.9c0-0.3,0.1-0.5,0.3-0.7c0.2-0.2,0.4-0.3,0.7-0.3
		s0.5,0.1,0.7,0.3c0.2,0.2,0.3,0.4,0.3,0.7s-0.1,0.5-0.3,0.7S269.8,7,269.5,7s-0.5-0.1-0.7-0.3C268.6,6.5,268.5,6.2,268.5,5.9z"/>
	<path class="st0" d="M277.8,15.1c-0.1,0.5-0.2,1-0.2,1.4c-0.1,0.4-0.1,0.8-0.1,1.2c0,0.1,0,0.3,0,0.4c0,0.1,0,0.2,0,0.3h-0.9
		l-0.3-1.7h-0.1c-0.2,0.2-0.3,0.4-0.6,0.7s-0.5,0.4-0.8,0.6c-0.3,0.2-0.6,0.3-0.9,0.4s-0.6,0.2-1,0.2c-0.7,0-1.2-0.3-1.7-0.8
		c-0.4-0.5-0.6-1.3-0.6-2.4c0-0.7,0.1-1.5,0.3-2.3c0.2-0.8,0.5-1.5,0.9-2.2c0.4-0.6,0.9-1.2,1.6-1.6c0.6-0.4,1.4-0.6,2.2-0.6
		c0.2,0,0.4,0,0.6,0c0.2,0,0.3,0,0.5,0.1s0.3,0.1,0.4,0.1c0.1,0,0.3,0.1,0.4,0.1l0.8-3.9h1.4L277.8,15.1z M273.6,17.3
		c0.3,0,0.5-0.1,0.8-0.2s0.5-0.3,0.8-0.5c0.2-0.2,0.5-0.4,0.7-0.7c0.2-0.2,0.4-0.5,0.5-0.7l1.1-4.9c-0.2-0.1-0.5-0.2-0.7-0.3
		c-0.3-0.1-0.6-0.1-1.1-0.1c-0.5,0-1,0.2-1.4,0.5c-0.4,0.3-0.7,0.7-1,1.2c-0.3,0.5-0.5,1.1-0.7,1.8c-0.2,0.7-0.2,1.4-0.2,2.1
		c0,0.5,0.1,1,0.3,1.3C272.8,17.1,273.1,17.3,273.6,17.3z"/>
	<path class="st0" d="M286.8,17.4c-0.4,0.4-1,0.7-1.6,0.9s-1.2,0.3-1.8,0.3c-1,0-1.8-0.3-2.3-0.9c-0.5-0.6-0.8-1.4-0.8-2.4
		c0-1,0.1-2,0.4-2.8c0.3-0.8,0.7-1.5,1.1-2.1c0.5-0.6,1-1,1.6-1.3s1.2-0.5,1.9-0.5c0.5,0,0.9,0.1,1.2,0.2c0.3,0.1,0.6,0.3,0.8,0.5
		c0.2,0.2,0.4,0.4,0.5,0.7c0.1,0.3,0.2,0.6,0.2,0.9c0,0.9-0.4,1.6-1.3,2.1c-0.9,0.5-2.1,0.8-3.8,0.8c-0.2,0-0.3,0-0.5,0
		c-0.2,0-0.3,0-0.5,0c-0.1,0.2-0.1,0.5-0.1,0.7s0,0.4,0,0.6c0,0.7,0.2,1.3,0.5,1.7c0.3,0.4,0.8,0.7,1.5,0.7c0.6,0,1.1-0.1,1.5-0.3
		s0.8-0.4,1.1-0.6L286.8,17.4z M285.2,9.8c-0.7,0-1.3,0.2-1.8,0.7c-0.5,0.5-0.9,1.2-1.2,2.1c0.5,0,1,0,1.5,0s1-0.1,1.4-0.2
		s0.8-0.3,1.1-0.5s0.4-0.6,0.4-1c0-0.1,0-0.3-0.1-0.4s-0.1-0.3-0.2-0.4c-0.1-0.1-0.2-0.2-0.4-0.3C285.7,9.9,285.4,9.8,285.2,9.8z"/>
	<path class="st0" d="M300.2,17.5c-0.2,0.2-0.4,0.3-0.7,0.4c-0.2,0.1-0.5,0.2-0.8,0.3c-0.3,0.1-0.5,0.2-0.8,0.2
		c-0.3,0.1-0.5,0.1-0.7,0.1c-0.6,0-1.1-0.1-1.5-0.3s-0.7-0.4-0.9-0.7c-0.2-0.3-0.4-0.6-0.5-1c-0.1-0.4-0.1-0.7-0.1-1
		c0-1.1,0.1-2,0.4-2.9c0.3-0.9,0.7-1.6,1.2-2.2s1-1,1.7-1.4c0.6-0.3,1.3-0.5,2-0.5c0.5,0,0.9,0,1.2,0.1s0.6,0.2,0.8,0.3l-0.5,1.2
		c-0.2-0.1-0.5-0.2-0.8-0.3c-0.3-0.1-0.7-0.1-1-0.1c-0.4,0-0.9,0.1-1.3,0.4c-0.4,0.3-0.8,0.7-1.1,1.1s-0.6,1-0.8,1.6
		c-0.2,0.6-0.3,1.2-0.3,1.9c0,0.8,0.2,1.4,0.5,1.8c0.3,0.4,0.8,0.6,1.4,0.6c0.4,0,0.8-0.1,1.2-0.3c0.4-0.2,0.8-0.3,1-0.5L300.2,17.5
		z"/>
	<path class="st0" d="M303.5,16.1c0,0.2-0.1,0.4-0.1,0.5c0,0.2,0,0.4,0.1,0.5s0.2,0.2,0.3,0.2c0.3,0,0.5,0,0.6,0s0.4-0.1,0.6-0.2
		v1.1c-0.1,0.1-0.2,0.1-0.4,0.2c-0.2,0-0.3,0.1-0.5,0.1s-0.3,0-0.5,0.1c-0.2,0-0.3,0-0.4,0c-0.4,0-0.8-0.1-1.1-0.3s-0.4-0.6-0.4-1.1
		c0-0.3,0-0.6,0.1-0.9L304.3,5h1.4L303.5,16.1z"/>
	<path class="st0" d="M313.7,14.6c-0.1,0.5-0.2,0.9-0.2,1.4c0,0.5-0.1,0.9-0.1,1.3c0,0.2,0,0.4,0,0.5s0,0.3,0,0.5h-1l-0.3-1.7h-0.1
		c-0.2,0.2-0.3,0.4-0.6,0.7c-0.2,0.2-0.5,0.4-0.7,0.6s-0.6,0.3-0.9,0.4s-0.6,0.2-1,0.2c-1.5,0-2.3-1-2.3-2.9c0-0.8,0.1-1.6,0.3-2.5
		s0.5-1.6,1-2.3c0.4-0.7,1-1.2,1.7-1.7c0.7-0.4,1.5-0.6,2.5-0.6c0.4,0,0.8,0,1.3,0.1c0.5,0.1,1,0.2,1.4,0.3L313.7,14.6z M309.4,17.3
		c0.3,0,0.6-0.1,0.9-0.2s0.5-0.3,0.8-0.5c0.2-0.2,0.5-0.4,0.7-0.7c0.2-0.2,0.3-0.5,0.5-0.7l1.1-5.1c-0.4-0.2-0.9-0.3-1.4-0.3
		s-1.1,0.2-1.5,0.5c-0.4,0.3-0.8,0.8-1.1,1.3c-0.3,0.5-0.5,1.2-0.7,1.9c-0.2,0.7-0.2,1.4-0.2,2.1c0,0.5,0.1,0.9,0.3,1.2
		S309,17.3,309.4,17.3z"/>
	<path class="st0" d="M321.9,10.1c-0.1,0-0.2,0-0.4-0.1s-0.2,0-0.3,0c-0.6,0-1.2,0.2-1.7,0.6c-0.5,0.4-0.8,0.9-1.1,1.5l-1.3,6.2
		h-1.4l2-9.5h1v1.6h0.1c0.2-0.2,0.3-0.5,0.5-0.7c0.2-0.2,0.4-0.4,0.6-0.6c0.2-0.2,0.4-0.3,0.7-0.4c0.3-0.1,0.5-0.1,0.8-0.1
		c0.3,0,0.6,0,0.9,0.1L321.9,10.1z"/>
	<path class="st0" d="M324.1,8.8h1.4l-2,9.5H322L324.1,8.8z M324.4,5.9c0-0.3,0.1-0.5,0.3-0.7c0.2-0.2,0.4-0.3,0.7-0.3
		s0.5,0.1,0.7,0.3c0.2,0.2,0.3,0.4,0.3,0.7s-0.1,0.5-0.3,0.7S325.7,7,325.4,7s-0.5-0.1-0.7-0.3C324.5,6.5,324.4,6.2,324.4,5.9z"/>
	<path class="st0" d="M327.2,8.8h1.4L329,7l1.5-0.4L330,8.8h2.5l-0.3,1.2h-2.5l-1.2,5.7c0,0.2,0,0.3-0.1,0.4c0,0.1,0,0.2,0,0.3
		c0,0.3,0.1,0.5,0.2,0.6c0.1,0.1,0.3,0.2,0.6,0.2c0.3,0,0.6,0,0.8-0.1s0.5-0.2,0.8-0.3V18c-0.3,0.2-0.6,0.3-1,0.4
		c-0.4,0.1-0.8,0.1-1.2,0.1c-1.2,0-1.7-0.5-1.7-1.6c0-0.2,0-0.5,0.1-0.8l1.3-6.1h-1.4L327.2,8.8z"/>
	<path class="st0" d="M335.9,15l0.1,1.8h0.1l0.7-1.8l3.1-6.1h1.5l-4.5,8.5c-0.3,0.6-0.7,1.2-1,1.8c-0.3,0.6-0.7,1.1-1,1.6
		c-0.3,0.5-0.7,0.8-1.1,1.1c-0.4,0.3-0.7,0.4-1.1,0.4c-0.2,0-0.4,0-0.6,0c-0.2,0-0.3-0.1-0.4-0.1l0.5-1.3c0.1,0.1,0.3,0.1,0.5,0.1
		c0.4,0,0.7-0.2,1.1-0.6c0.4-0.4,0.8-1,1.2-1.9l-1.6-9.5h1.5L335.9,15z"/>
</g>
</svg>
