<?xml version="1.0" encoding="utf-8"?>
<!-- Generator: Adobe Illustrator 22.1.0, SVG Export Plug-In . SVG Version: 6.00 Build 0)  -->
<svg version="1.1" id="Layer_1" xmlns="http://www.w3.org/2000/svg" xmlns:xlink="http://www.w3.org/1999/xlink" x="0px" y="0px"
	 viewBox="0 0 215.7 56.8" style="enable-background:new 0 0 215.7 56.8;" xml:space="preserve">
<style type="text/css">
	.st0{fill:#FFFFFF;}
</style>
<g>
	<path class="st0" d="M80.3,42.6c0.9,0,1.7-0.7,1.7-1.7s-0.7-1.7-1.7-1.7s-1.7,0.7-1.7,1.7S79.4,42.6,80.3,42.6z M80.5,17.4
		c0-0.9-0.7-1.7-1.7-1.7s-1.7,0.7-1.7,1.7s0.7,1.7,1.7,1.7S80.5,18.4,80.5,17.4z M91.3,10.1c0.9,0,1.7-0.7,1.7-1.7s-0.7-1.7-1.7-1.7
		s-1.7,0.7-1.7,1.7S90.4,10.1,91.3,10.1z M109.8,9.1c0.7,0,1.3-0.6,1.3-1.3s-0.6-1.3-1.3-1.3s-1.3,0.6-1.3,1.3S109.1,9.1,109.8,9.1z
		 M109.9,43.9c-0.8,0-1.4,0.6-1.4,1.4s0.6,1.4,1.4,1.4s1.4-0.6,1.4-1.4S110.7,43.9,109.9,43.9z M119.4,17.4
		c-0.4-0.4-0.9-0.6-1.4-0.5c-0.6,0.1-0.9,0.5-1.2,1c-1.1,1.6-2.6,2.3-4.5,2.1c-0.1,0-0.1,0-0.2-0.1c-0.6-1-1.3-2-2-2.9
		c0-0.1,0.1-0.3,0.1-0.4c0.1-0.1,0.1-0.3,0.1-0.4c0.4-1,1-1.8,1.9-2.4c0.7-0.5,1.5-0.7,2.3-0.9c0.9-0.2,1.5-1.1,1.4-2
		c-0.1-0.7-0.4-1.2-1-1.5s-1.2-0.3-1.8,0.1c-0.6,0.4-0.8,0.9-0.9,1.6c-0.5,2.2-1.8,3.6-3.9,4.1c-1.4-1.2-3-2.2-4.7-2.9
		c0-0.8,0.2-1.5,0.7-2.1c0.4-0.5,0.8-0.8,1.3-1.2c0.6-0.4,0.8-1.1,0.5-1.7c-0.2-0.4-0.6-0.7-1.1-0.7s-0.9,0.1-1.2,0.5
		c-0.3,0.4-0.3,0.8-0.2,1.3c0.2,1.4-0.2,2.6-1.2,3.4c-1.4-0.5-2.9-0.8-4.5-0.9c0-0.1-0.1-0.1-0.1-0.2c0-0.1-0.1-0.3-0.2-0.4
		c-0.4-1-0.5-2-0.3-3c0.2-0.8,0.6-1.5,1-2.2c0.5-0.8,0.4-1.8-0.4-2.4c-0.5-0.4-1.1-0.5-1.7-0.3s-1,0.7-1.2,1.3
		c-0.2,0.7,0.1,1.2,0.4,1.8c1.2,1.9,1.2,3.7,0.1,5.6c-2.1,0.2-4.1,0.7-6,1.6c-0.1-0.1-0.3-0.1-0.4-0.3c-0.1-0.1-0.3-0.2-0.4-0.3
		c-0.8-0.7-1.4-1.5-1.7-2.5c-0.2-0.8-0.2-1.6-0.2-2.4c0-1-0.6-1.8-1.5-1.9c-0.7-0.1-1.2,0-1.7,0.5S83,6.9,83.1,7.5
		c0.2,0.7,0.7,1,1.2,1.4c2,1.1,2.9,2.8,2.7,5.1c-0.9,0.6-1.8,1.3-2.6,2.1c-0.1,0-0.1,0-0.2-0.1c-0.1,0-0.2-0.1-0.3-0.1
		c-0.7-0.3-1.2-0.8-1.6-1.4c-0.3-0.5-0.4-1.1-0.6-1.6c-0.1-0.7-0.7-1.1-1.4-1.1c-0.5,0-0.8,0.3-1.1,0.7c-0.2,0.4-0.2,0.8,0,1.3
		c0.2,0.4,0.6,0.6,1.1,0.7c1.6,0.4,2.5,1.4,2.8,3c-2.6,3-4.1,7-4.1,11.2c0,4.8,1.9,9.1,5,12.2c0,0.1,0,0.3-0.1,0.4
		c-0.1,0.1-0.1,0.3-0.1,0.4c-0.4,1-0.9,1.9-1.8,2.5c-0.7,0.5-1.4,0.8-2.2,1c-0.9,0.3-1.5,1.1-1.3,2c0.1,0.7,0.5,1.1,1.1,1.4
		c0.6,0.3,1.2,0.2,1.8-0.2c0.6-0.4,0.7-1,0.8-1.6c0.4-2.2,1.6-3.7,3.7-4.3c1.3,1,2.9,1.9,4.5,2.5c0,0.1,0,0.2,0,0.3
		c0.1,0.9-0.1,1.7-0.5,2.5c-0.4,0.6-0.8,1.1-1.4,1.6s-0.7,1.4-0.3,2c0.3,0.5,0.8,0.7,1.3,0.7c0.6,0,1-0.3,1.3-0.7
		c0.3-0.5,0.2-1,0.1-1.5c-0.4-1.7-0.1-3.1,1.1-4.3c1.1,0.3,2.3,0.5,3.5,0.6c0.1,0.1,0.2,0.3,0.2,0.4c0,0.1,0.1,0.3,0.2,0.4
		c0.4,1,0.5,2,0.3,3c-0.2,0.8-0.6,1.5-1,2.2c-0.5,0.8-0.4,1.8,0.4,2.4c0.5,0.4,1.1,0.5,1.7,0.3s1-0.7,1.2-1.3
		c0.2-0.7-0.1-1.2-0.4-1.8c-1.2-1.9-1.2-3.9,0-5.8c1.5-0.1,3-0.5,4.4-1c0,0,0,0,0.1,0.1s0.2,0.1,0.2,0.2c0.5,0.5,0.9,1.1,1,1.9
		c0.1,0.6,0.1,1.2,0,1.7c-0.1,0.7,0.3,1.3,0.9,1.5c0.5,0.1,0.9,0.1,1.2-0.3c0.4-0.3,0.5-0.7,0.4-1.2s-0.4-0.8-0.8-1
		c-1.2-0.9-1.8-2.1-1.6-3.5c2.1-1,4-2.5,5.6-4.2c0.1,0,0.2,0,0.4,0.1c0.1,0.1,0.3,0.1,0.4,0.1c1,0.3,1.9,0.9,2.5,1.7
		c0.5,0.7,0.8,1.4,1.1,2.2c0.3,0.9,1.2,1.4,2.1,1.3c0.7-0.1,1.1-0.5,1.4-1.1s0.2-1.2-0.2-1.8c-0.4-0.6-1-0.7-1.6-0.8
		c-2.3-0.3-3.7-1.6-4.4-3.7c1.8-2.7,2.9-6,2.9-9.6c0-2.2-0.4-4.2-1.1-6.2c0-0.2,0.1-0.4,0.3-0.6c0.1-0.1,0.2-0.2,0.2-0.3
		c0.6-0.7,1.3-1.1,2.2-1.3c0.7-0.2,1.4-0.1,2.1,0c0.8,0.1,1.5-0.4,1.7-1.1C119.9,18.3,119.8,17.8,119.4,17.4z M104.2,39.2h-3.9
		L97.2,31L94,39.1h-3.9l-7.5-18.6l4.5,0.1l5.3,14.1l2.3-6l-3.2-8.1h3.8l1.9,5.7l2-5.7h3.8l-3.3,8l2.2,6l5.7-14l4.5,0.1L104.2,39.2z"
		/>
	<g>
		<path class="st0" d="M10.3,39.3L3.4,20.7h4.9L13,35.4l4.7-14.7h4.5l-6.8,18.5L10.3,39.3L10.3,39.3z"/>
		<path class="st0" d="M23.5,18.1v-4.7h4.7v4.7H23.5z M23.5,39.3V20.7h4.7v18.5L23.5,39.3L23.5,39.3z"/>
		<path class="st0" d="M42.5,24.8c-1.4,0-2.7,0.3-3.9,0.8S36.7,27,36.2,28v11.2h-4.7V20.7h4.3v4c0.3-0.6,0.7-1.2,1.2-1.7
			c0.4-0.5,0.9-0.9,1.4-1.3s1-0.7,1.6-0.9s1-0.3,1.5-0.3c0.3,0,0.5,0,0.6,0s0.3,0,0.4,0V24.8z"/>
		<path class="st0" d="M49.7,39.6c-1.9,0-3.4-0.6-4.3-1.8c-1-1.2-1.5-3-1.5-5.4V20.7h4.7v10.6c0,2.9,1,4.3,3.1,4.3
			c0.9,0,1.8-0.3,2.7-0.8s1.6-1.4,2.1-2.5V20.7h4.7v13.1c0,0.5,0.1,0.8,0.3,1.1c0.2,0.2,0.5,0.3,0.9,0.4v4c-0.5,0.1-0.9,0.2-1.2,0.2
			s-0.6,0-0.9,0c-0.8,0-1.5-0.2-2.1-0.6c-0.5-0.4-0.8-0.9-0.9-1.6l-0.1-1.5c-0.8,1.3-1.9,2.2-3.2,2.9C52.6,39.3,51.2,39.6,49.7,39.6
			z"/>
		<path class="st0" d="M71.8,39.6c-1.6,0-3.1-0.2-4.6-0.7s-2.8-1.2-3.8-2.1l1.8-3c1.1,0.8,2.2,1.4,3.3,1.8c1.1,0.4,2.1,0.6,3.2,0.6
			c0.9,0,1.7-0.2,2.2-0.5c0.5-0.4,0.8-0.9,0.8-1.5s-0.3-1.1-1-1.5c-0.6-0.3-1.7-0.7-3.1-1.1c-1.2-0.3-2.2-0.6-3.1-1
			c-0.8-0.3-1.5-0.7-2.1-1c-0.5-0.4-0.9-0.8-1.1-1.3s-0.4-1.1-0.4-1.8c0-0.9,0.2-1.8,0.5-2.5c0.4-0.8,0.9-1.4,1.5-1.9
			c0.7-0.5,1.4-0.9,2.3-1.2c0.9-0.3,1.8-0.4,2.9-0.4c1.4,0,2.7,0.2,3.9,0.6c1.2,0.4,2.3,1,3.3,1.9l-1.9,2.9
			c-0.9-0.7-1.9-1.2-2.7-1.6c-0.9-0.3-1.8-0.5-2.6-0.5c-0.8,0-1.5,0.2-2,0.5s-0.8,0.9-0.8,1.6c0,0.3,0.1,0.6,0.2,0.8
			c0.1,0.2,0.3,0.4,0.6,0.6c0.3,0.2,0.7,0.3,1.1,0.5c0.5,0.2,1,0.3,1.7,0.5c1.3,0.3,2.4,0.7,3.3,1s1.6,0.7,2.2,1.1s1,0.9,1.3,1.5
			c0.3,0.6,0.4,1.2,0.4,2c0,1.8-0.7,3.2-2,4.3C76,39.1,74.1,39.6,71.8,39.6z"/>
	</g>
	<g>
		<path class="st0" d="M124.6,39.6c-1.5,0-2.8-0.3-4-0.8s-2.2-1.2-3.1-2.1c-0.8-0.9-1.5-1.9-2-3c-0.5-1.2-0.7-2.4-0.7-3.6
			c0-1.3,0.2-2.6,0.7-3.7s1.1-2.2,1.9-3.1s1.9-1.6,3.1-2.1s2.6-0.8,4.1-0.8s2.9,0.3,4,0.8c1.2,0.5,2.2,1.2,3,2.1s1.5,1.9,1.9,3
			c0.4,1.2,0.7,2.4,0.7,3.6c0,0.3,0,0.6,0,0.9s0,0.5-0.1,0.7h-14.3c0.1,0.7,0.2,1.4,0.5,1.9c0.3,0.6,0.6,1,1.1,1.5
			c0.4,0.4,1,0.7,1.5,0.9c0.6,0.2,1.2,0.3,1.8,0.3c0.9,0,1.8-0.2,2.7-0.7c0.8-0.5,1.4-1.1,1.7-1.8l4.1,1.1c-0.7,1.4-1.8,2.6-3.3,3.5
			C128.4,39.2,126.6,39.6,124.6,39.6z M129.4,28.4c-0.1-1.4-0.6-2.5-1.5-3.3c-0.9-0.8-2-1.3-3.3-1.3c-0.6,0-1.2,0.1-1.8,0.3
			c-0.6,0.2-1,0.5-1.5,0.9s-0.8,0.9-1,1.4c-0.3,0.6-0.4,1.2-0.5,1.9h9.6V28.4z"/>
		<path class="st0" d="M139.9,39.6c-0.9,0-1.7-0.1-2.5-0.4c-0.8-0.3-1.4-0.7-2-1.2s-1-1.1-1.3-1.9s-0.5-1.5-0.5-2.3
			c0-0.9,0.2-1.7,0.6-2.4c0.4-0.7,0.9-1.4,1.6-1.9c0.7-0.5,1.5-0.9,2.5-1.2c1-0.3,2-0.4,3.2-0.4c0.8,0,1.6,0.1,2.4,0.2
			c0.8,0.1,1.5,0.3,2.1,0.6v-1.1c0-1.2-0.3-2.2-1-2.8c-0.7-0.7-1.7-1-3.1-1c-1,0-2,0.2-2.9,0.5c-0.9,0.4-1.9,0.9-2.9,1.6l-1.4-3
			c2.4-1.6,5-2.4,7.7-2.4s4.7,0.7,6.2,2s2.2,3.2,2.2,5.7V34c0,0.5,0.1,0.8,0.3,1.1c0.2,0.2,0.5,0.3,0.9,0.4v4
			c-0.8,0.2-1.5,0.2-2.1,0.2c-0.9,0-1.6-0.2-2.1-0.6c-0.5-0.4-0.8-0.9-0.9-1.6l-0.1-1c-0.8,1.1-1.8,1.9-3,2.5
			C142.5,39.3,141.3,39.6,139.9,39.6z M141.3,36.1c0.8,0,1.6-0.1,2.3-0.4c0.7-0.3,1.3-0.7,1.7-1.1c0.5-0.4,0.8-0.8,0.8-1.3v-2.1
			c-0.6-0.2-1.2-0.4-1.8-0.5c-0.7-0.1-1.3-0.2-1.9-0.2c-1.2,0-2.2,0.3-3,0.8s-1.2,1.3-1.2,2.1s0.3,1.5,0.9,2
			C139.6,35.9,140.4,36.1,141.3,36.1z"/>
		<path class="st0" d="M163.4,38.3c-0.6,0.3-1.4,0.6-2.3,0.8c-0.9,0.3-1.9,0.4-2.9,0.4c-0.7,0-1.3-0.1-1.9-0.2
			c-0.6-0.2-1.1-0.4-1.5-0.8c-0.4-0.4-0.8-0.8-1-1.4c-0.3-0.6-0.4-1.3-0.4-2.1V24.4H151v-3.6h2.4v-6h4.7v6h3.9v3.6h-3.9v9.1
			c0,0.7,0.2,1.1,0.5,1.4c0.3,0.3,0.8,0.4,1.3,0.4s1-0.1,1.4-0.2c0.5-0.2,0.8-0.3,1.1-0.4L163.4,38.3z"/>
		<path class="st0" d="M180.5,39.3h-4.7V28.9c0-1.5-0.3-2.5-0.8-3.2s-1.3-1-2.3-1c-0.4,0-0.9,0.1-1.3,0.3c-0.5,0.2-0.9,0.5-1.3,0.8
			s-0.8,0.7-1.2,1.2s-0.6,1-0.8,1.6v10.8h-4.7v-26h4.7v10.7c0.7-1.2,1.6-2.1,2.8-2.8c1.2-0.6,2.5-1,3.9-1c1.2,0,2.2,0.2,2.9,0.6
			c0.8,0.4,1.3,1,1.8,1.6s0.7,1.5,0.9,2.3c0.2,0.9,0.2,1.8,0.2,2.7L180.5,39.3L180.5,39.3z"/>
		<path class="st0" d="M190.9,39.6c-1.5,0-2.8-0.3-4-0.8s-2.2-1.2-3.1-2.1c-0.8-0.9-1.5-1.9-2-3c-0.5-1.2-0.7-2.4-0.7-3.6
			c0-1.3,0.2-2.6,0.7-3.7s1.1-2.2,1.9-3.1s1.9-1.6,3.1-2.1c1.2-0.5,2.6-0.8,4.1-0.8s2.9,0.3,4,0.8c1.2,0.5,2.2,1.2,3,2.1
			s1.5,1.9,1.9,3c0.4,1.2,0.7,2.4,0.7,3.6c0,0.3,0,0.6,0,0.9s0,0.5-0.1,0.7h-14.3c0.1,0.7,0.2,1.4,0.5,1.9c0.3,0.6,0.6,1,1.1,1.5
			c0.4,0.4,1,0.7,1.5,0.9c0.6,0.2,1.2,0.3,1.8,0.3c0.9,0,1.8-0.2,2.7-0.7c0.8-0.5,1.4-1.1,1.7-1.8l4.1,1.1c-0.7,1.4-1.8,2.6-3.3,3.5
			C194.7,39.2,192.9,39.6,190.9,39.6z M195.7,28.4c-0.1-1.4-0.6-2.5-1.5-3.3s-2-1.3-3.3-1.3c-0.6,0-1.2,0.1-1.8,0.3
			c-0.6,0.2-1,0.5-1.5,0.9s-0.8,0.9-1,1.4c-0.3,0.6-0.4,1.2-0.5,1.9h9.6V28.4z"/>
		<path class="st0" d="M212.1,24.8c-1.4,0-2.7,0.3-3.9,0.8c-1.1,0.5-1.9,1.3-2.4,2.4v11.2h-4.7V20.7h4.3v4c0.3-0.6,0.7-1.2,1.2-1.7
			c0.4-0.5,0.9-0.9,1.5-1.3s1-0.7,1.6-0.9s1-0.3,1.5-0.3c0.3,0,0.5,0,0.6,0s0.3,0,0.4,0v4.3H212.1z"/>
	</g>
</g>
</svg>
